<?xml version="1.0" encoding="UTF-8" standalone="no"?>
<!-- Created with Inkscape (http://www.inkscape.org/) -->

<svg
   xmlns:dc="http://purl.org/dc/elements/1.1/"
   xmlns:cc="http://creativecommons.org/ns#"
   xmlns:rdf="http://www.w3.org/1999/02/22-rdf-syntax-ns#"
   xmlns:svg="http://www.w3.org/2000/svg"
   xmlns="http://www.w3.org/2000/svg"
   xmlns:sodipodi="http://sodipodi.sourceforge.net/DTD/sodipodi-0.dtd"
   xmlns:inkscape="http://www.inkscape.org/namespaces/inkscape"
   width="250.29485mm"
   height="54.345417mm"
   viewBox="0 0 250.29485 54.345417"
   version="1.1"
   id="svg8"
   inkscape:version="0.92.3 (2405546, 2018-03-11)">
  <defs
     id="defs2">
	

		
			<linearGradient
   id="SVGID_1_"
   gradientUnits="userSpaceOnUse"
   x1="321.23099"
   y1="-728.17548"
   x2="321.23099"
   y2="-618.71869"
   gradientTransform="matrix(0.26458333,0,0,0.26458333,40.08449,305.39942)">
			<stop
   offset="5.405406e-03"
   style="stop-color:#00E6CF"
   id="stop3769" />

			<stop
   offset="0.8162"
   style="stop-color:#F07400"
   id="stop3771" />

		</linearGradient>

		
		
			<linearGradient
   id="SVGID_2_"
   gradientUnits="userSpaceOnUse"
   x1="321.23099"
   y1="-728.17548"
   x2="321.23099"
   y2="-618.71869"
   gradientTransform="matrix(0.26458333,0,0,0.26458333,40.08449,305.39942)">
			<stop
   offset="5.405406e-03"
   style="stop-color:#00E6CF"
   id="stop3776" />

			<stop
   offset="0.8162"
   style="stop-color:#F07400"
   id="stop3778" />

		</linearGradient>

		
		
			<linearGradient
   id="SVGID_3_"
   gradientUnits="userSpaceOnUse"
   x1="321.23099"
   y1="-728.17548"
   x2="321.23099"
   y2="-618.71869"
   gradientTransform="matrix(0.26458333,0,0,0.26458333,40.08449,305.39942)">
			<stop
   offset="5.405406e-03"
   style="stop-color:#00E6CF"
   id="stop3783" />

			<stop
   offset="0.8162"
   style="stop-color:#F07400"
   id="stop3785" />

		</linearGradient>

		
		
			<linearGradient
   id="SVGID_4_"
   gradientUnits="userSpaceOnUse"
   x1="321.23099"
   y1="-728.17548"
   x2="321.23099"
   y2="-618.71869"
   gradientTransform="matrix(0.26458333,0,0,0.26458333,40.08449,305.39942)">
			<stop
   offset="5.405406e-03"
   style="stop-color:#00E6CF"
   id="stop3790" />

			<stop
   offset="0.8162"
   style="stop-color:#F07400"
   id="stop3792" />

		</linearGradient>

		
		
			<linearGradient
   id="SVGID_5_"
   gradientUnits="userSpaceOnUse"
   x1="321.23099"
   y1="-728.17548"
   x2="321.23099"
   y2="-618.71869"
   gradientTransform="matrix(0.26458333,0,0,0.26458333,40.08449,305.39942)">
			<stop
   offset="5.405406e-03"
   style="stop-color:#00E6CF"
   id="stop3797" />

			<stop
   offset="0.8162"
   style="stop-color:#F07400"
   id="stop3799" />

		</linearGradient>

		
		
			<linearGradient
   id="SVGID_6_"
   gradientUnits="userSpaceOnUse"
   x1="321.23099"
   y1="-728.17548"
   x2="321.23099"
   y2="-618.71869"
   gradientTransform="matrix(0.26458333,0,0,0.26458333,101.30265,289.63025)">
			<stop
   offset="5.405406e-03"
   style="stop-color:#00E6CF"
   id="stop3804" />

			<stop
   offset="0.8162"
   style="stop-color:#F07400"
   id="stop3806" />

		</linearGradient>

		
		
			<linearGradient
   id="SVGID_7_"
   gradientUnits="userSpaceOnUse"
   x1="321.23099"
   y1="-728.17548"
   x2="321.23099"
   y2="-618.71869"
   gradientTransform="matrix(0.26458333,0,0,0.26458333,101.30265,289.63025)">
			<stop
   offset="5.405406e-03"
   style="stop-color:#00E6CF"
   id="stop3811" />

			<stop
   offset="0.8162"
   style="stop-color:#F07400"
   id="stop3813" />

		</linearGradient>

		
		
			<linearGradient
   id="SVGID_8_"
   gradientUnits="userSpaceOnUse"
   x1="321.23099"
   y1="-728.17548"
   x2="321.23099"
   y2="-618.71869"
   gradientTransform="matrix(0.26458333,0,0,0.26458333,101.30265,289.63025)">
			<stop
   offset="5.405406e-03"
   style="stop-color:#00E6CF"
   id="stop3818" />

			<stop
   offset="0.8162"
   style="stop-color:#F07400"
   id="stop3820" />

		</linearGradient>

		
		
			<linearGradient
   id="SVGID_9_"
   gradientUnits="userSpaceOnUse"
   x1="321.23099"
   y1="-728.17548"
   x2="321.23099"
   y2="-618.71869"
   gradientTransform="matrix(0.26458333,0,0,0.26458333,101.30265,289.63025)">
			<stop
   offset="5.405406e-03"
   style="stop-color:#00E6CF"
   id="stop3825" />

			<stop
   offset="0.8162"
   style="stop-color:#F07400"
   id="stop3827" />

		</linearGradient>

		
		
			<linearGradient
   id="SVGID_10_"
   gradientUnits="userSpaceOnUse"
   x1="321.23099"
   y1="-728.17548"
   x2="321.23099"
   y2="-618.71869"
   gradientTransform="matrix(0.26458333,0,0,0.26458333,101.30265,289.63025)">
			<stop
   offset="5.405406e-03"
   style="stop-color:#00E6CF"
   id="stop3832" />

			<stop
   offset="0.8162"
   style="stop-color:#F07400"
   id="stop3834" />

		</linearGradient>

		
	</defs>
  <sodipodi:namedview
     id="base"
     pagecolor="#ffffff"
     bordercolor="#666666"
     borderopacity="1.0"
     inkscape:pageopacity="0.0"
     inkscape:pageshadow="2"
     inkscape:zoom="0.7"
     inkscape:cx="768.31857"
     inkscape:cy="-151.19149"
     inkscape:document-units="mm"
     inkscape:current-layer="layer1"
     showgrid="false"
     fit-margin-top="0"
     fit-margin-left="0"
     fit-margin-right="0"
     fit-margin-bottom="0"
     inkscape:window-width="1920"
     inkscape:window-height="1025"
     inkscape:window-x="0"
     inkscape:window-y="27"
     inkscape:window-maximized="1" />
  <metadata
     id="metadata5">
    <rdf:RDF>
      <cc:Work
         rdf:about="">
        <dc:format>image/svg+xml</dc:format>
        <dc:type
           rdf:resource="http://purl.org/dc/dcmitype/StillImage" />
        <dc:title></dc:title>
      </cc:Work>
    </rdf:RDF>
  </metadata>
  <g
     inkscape:label="Layer 1"
     inkscape:groupmode="layer"
     id="layer1"
     transform="translate(-2.5098773,-6.632121)">
    <g
       id="g5676"
       transform="translate(-38.553571,-93.360119)">
      <g
         transform="matrix(1.6657723,0,0,1.6657723,-65.406656,-71.228423)"
         id="g5319">
        <path
           style="fill:url(#SVGID_1_);stroke-width:0.26458332"
           inkscape:connector-curvature="0"
           class="st0"
           d="m 104.16657,123.8312 c -0.44979,0.18521 -0.92604,0.34396 -1.40229,0.44979 -0.47625,0.10583 -0.9525,0.15875 -1.42875,0.15875 -0.68792,0 -1.32292,-0.10583 -1.931457,-0.34396 -0.608542,-0.21167 -1.190625,-0.55562 -1.693334,-1.00542 -1.031875,-1.05833 -1.561041,-2.30187 -1.561041,-3.73062 0,-0.92604 0.211666,-1.74625 0.608541,-2.40771 0.396875,-0.66146 0.820209,-1.19062 1.190625,-1.53458 0.396875,-0.37042 0.767292,-0.60854 1.137709,-0.76729 0.343958,-0.1323 0.661458,-0.23813 0.873125,-0.29105 0.211662,-0.0529 0.449792,-0.0794 0.687912,-0.13229 0.23813,-0.0265 0.4498,-0.0265 0.68792,-0.0265 0.3175,0 0.66146,0.0265 1.03188,0.0794 0.37041,0.0529 0.71437,0.13229 1.08479,0.23812 l 0.74083,0.34396 v 1.29646 c -0.82021,-0.58208 -1.71979,-0.87312 -2.69875,-0.87312 -0.66146,0 -1.27,0.13229 -1.852082,0.39687 -0.582084,0.26458 -1.058334,0.68792 -1.481667,1.24354 -0.238125,0.34396 -0.423333,0.74084 -0.555625,1.13771 -0.132292,0.42333 -0.185208,0.84667 -0.185208,1.27 0,0.74083 0.185208,1.45521 0.555625,2.11667 0.370416,0.66146 0.899583,1.13771 1.534583,1.48166 0.635004,0.34396 1.322914,0.50271 2.010834,0.50271 0.74083,0 1.40229,-0.18521 1.98437,-0.52916 l 0.68792,-0.42334 v 1.34938 z"
           id="path3774" />
        <path
           style="fill:url(#SVGID_2_);stroke-width:0.26458332"
           inkscape:connector-curvature="0"
           class="st1"
           d="m 118.58636,119.30682 c 0,1.45521 -0.5027,2.67229 -1.53458,3.70417 -1.03187,1.03187 -2.24896,1.53458 -3.70417,1.53458 -1.4552,0 -2.7252,-0.50271 -3.78354,-1.48166 -1.05833,-0.97896 -1.5875,-2.19605 -1.5875,-3.6248 0,-1.4552 0.50271,-2.67229 1.53459,-3.70416 1.00541,-1.03188 2.24895,-1.53459 3.70416,-1.53459 1.45521,0 2.72521,0.50271 3.78354,1.48167 1.05834,0.97896 1.5875,2.19604 1.5875,3.62479 z m -1.21708,-0.0265 c 0,-1.11125 -0.39687,-2.06375 -1.21708,-2.8575 -0.82021,-0.76729 -1.77271,-1.16416 -2.91042,-1.16416 -1.11125,0 -2.06375,0.39687 -2.83104,1.21708 -0.76729,0.82021 -1.16417,1.79917 -1.16417,2.93688 0,1.11125 0.39688,2.06375 1.21709,2.83104 0.79375,0.76729 1.7727,1.16416 2.93687,1.16416 1.11125,0 2.06375,-0.39687 2.8575,-1.21708 0.71438,-0.82021 1.11125,-1.77271 1.11125,-2.91042 z"
           id="path3781" />
        <path
           style="fill:url(#SVGID_3_);stroke-width:0.26458332"
           inkscape:connector-curvature="0"
           class="st2"
           d="m 127.95261,124.28099 h -4.84187 v -9.78958 h 1.21708 v 8.73125 h 3.62479 z"
           id="path3788" />
        <path
           style="fill:url(#SVGID_4_);stroke-width:0.26458332"
           inkscape:connector-curvature="0"
           class="st3"
           d="m 139.54136,124.28099 h -5.31812 v -9.78958 h 5.31812 v 1.05833 h -4.1275 v 2.91042 h 4.1275 v 1.00541 h -4.1275 v 3.78354 h 4.1275 z"
           id="path3795" />
        <path
           style="fill:url(#SVGID_5_);stroke-width:0.26458332"
           inkscape:connector-curvature="0"
           class="st4"
           d="m 154.01407,124.28099 h -1.45521 l -0.97895,-1.21708 c -0.39688,0.42333 -0.84667,0.74083 -1.37584,0.97895 -0.52916,0.23813 -1.08479,0.34396 -1.64041,0.34396 -0.39688,0 -0.74084,-0.0529 -1.0848,-0.15875 -0.34395,-0.10583 -0.66145,-0.29104 -0.9525,-0.52916 -0.29104,-0.26459 -0.5027,-0.55563 -0.635,-0.87313 -0.13229,-0.34396 -0.21166,-0.68792 -0.21166,-1.05833 0,-0.74084 0.18521,-1.32292 0.52916,-1.69334 0.37042,-0.37041 0.68792,-0.635 0.97896,-0.8202 0.29104,-0.18521 0.55563,-0.3175 0.84667,-0.4498 -0.37042,-0.37041 -0.635,-0.71437 -0.82021,-1.05833 -0.18521,-0.34396 -0.29104,-0.71437 -0.29104,-1.11125 0,-0.15875 0,-0.26458 0,-0.34396 0,-0.0794 0.0794,-0.26458 0.15875,-0.55562 0.10583,-0.29104 0.34396,-0.55563 0.74083,-0.79375 0.39688,-0.23813 0.82021,-0.34396 1.29646,-0.34396 0.635,0 1.19063,0.18521 1.64042,0.55562 0.44979,0.37042 0.66146,0.84667 0.66146,1.45521 0,0.10584 -0.0265,0.29104 -0.0529,0.55563 -0.0529,0.26458 -0.23813,0.60854 -0.60854,0.9525 -0.37042,0.37041 -0.82021,0.66146 -1.37584,0.87312 l 2.30188,2.69875 c 0.21167,-0.21166 0.42333,-0.47625 0.635,-0.74083 0.21167,-0.26458 0.42333,-0.55563 0.60854,-0.82021 l 0.76729,0.76729 c -0.18521,0.3175 -0.37041,0.60854 -0.60854,0.84667 -0.23812,0.26458 -0.50271,0.47625 -0.79375,0.635 z m -3.09562,-1.82563 -2.35479,-2.8575 c -0.52917,0.29105 -0.9525,0.60855 -1.27,0.9525 -0.3175,0.34396 -0.47625,0.7673 -0.47625,1.21709 0,0.15875 0.0265,0.34396 0.0794,0.55562 0.13229,0.39688 0.34396,0.71438 0.66146,0.89959 0.3175,0.1852 0.68792,0.29104 1.11125,0.29104 0.21167,0 0.42333,-0.0265 0.635,-0.10584 0.21167,-0.0529 0.42333,-0.15875 0.635,-0.26458 0.21167,-0.10583 0.52917,-0.34396 0.97896,-0.68792 z m -0.76729,-6.37645 c -0.10584,-0.15875 -0.18521,-0.26459 -0.26459,-0.3175 -0.0794,-0.0529 -0.18521,-0.10584 -0.29104,-0.1323 -0.10583,-0.0264 -0.18521,-0.0529 -0.26458,-0.0529 -0.39688,0 -0.71438,0.10583 -0.9525,0.29104 -0.23813,0.18521 -0.37042,0.44979 -0.37042,0.79375 0,0.0529 0,0.13229 0.0265,0.23812 0,0.10584 0.0529,0.23813 0.13229,0.37042 l 0.71438,1.11125 c 0.39687,-0.21167 0.74083,-0.44979 1.00541,-0.74083 0.26459,-0.29104 0.39688,-0.60854 0.39688,-0.97896 -0.0265,-0.18521 -0.0529,-0.37042 -0.13229,-0.58208 z"
           id="path3802" />
        <path
           style="fill:url(#SVGID_6_);stroke-width:0.26458332"
           inkscape:connector-curvature="0"
           class="st5"
           d="m 164.03536,124.38682 h -4.84188 v -9.78958 h 1.21709 v 8.73125 h 3.62479 z"
           id="path3809" />
        <path
           style="fill:url(#SVGID_7_);stroke-width:0.26458332"
           inkscape:connector-curvature="0"
           class="st6"
           d="m 179.80452,119.41265 c 0,1.45521 -0.5027,2.67229 -1.53458,3.70417 -1.03187,1.03187 -2.24896,1.53458 -3.70417,1.53458 -1.4552,0 -2.7252,-0.50271 -3.78354,-1.48166 -1.05833,-0.97896 -1.5875,-2.19605 -1.5875,-3.6248 0,-1.4552 0.50271,-2.67229 1.53459,-3.70416 1.00541,-1.03188 2.24895,-1.53459 3.70416,-1.53459 1.45521,0 2.72521,0.50271 3.78354,1.48167 1.05834,0.97896 1.5875,2.19604 1.5875,3.62479 z m -1.21708,-0.0265 c 0,-1.11125 -0.39687,-2.06375 -1.21708,-2.8575 -0.82021,-0.76729 -1.77271,-1.16416 -2.91042,-1.16416 -1.11125,0 -2.06375,0.39687 -2.83104,1.21708 -0.76729,0.82021 -1.16417,1.79917 -1.16417,2.93688 0,1.11125 0.39688,2.06375 1.21709,2.83104 0.79375,0.76729 1.7727,1.16416 2.93687,1.16416 1.11125,0 2.06375,-0.39687 2.8575,-1.21708 0.71438,-0.82021 1.11125,-1.77271 1.11125,-2.91042 z"
           id="path3816" />
        <path
           style="fill:url(#SVGID_8_);stroke-width:0.26458332"
           inkscape:connector-curvature="0"
           class="st7"
           d="m 190.0439,117.00494 c 0,0.15875 0,0.26459 0,0.34396 0,0.68792 -0.21167,1.27 -0.66146,1.77271 -0.44979,0.50271 -1.00542,0.76729 -1.71979,0.84667 h -2.03729 v 4.41854 h -1.19063 v -9.78958 l 3.175,0.0529 c 0.68792,0.0794 1.27,0.34396 1.74625,0.76729 0.44979,0.39688 0.68792,0.9525 0.68792,1.5875 z m -2.19604,-1.21708 c -0.21167,-0.0794 -0.42334,-0.13229 -0.66146,-0.15875 h -1.5875 v 3.36021 h 1.98437 c 0.37042,-0.10583 0.68792,-0.34396 0.89959,-0.66146 0.21166,-0.3175 0.34396,-0.66146 0.34396,-1.05833 0,-0.3175 -0.0794,-0.60854 -0.23813,-0.87313 -0.15875,-0.26458 -0.39687,-0.47625 -0.74083,-0.60854 z"
           id="path3823" />
        <path
           style="fill:url(#SVGID_9_);stroke-width:0.26458332"
           inkscape:connector-curvature="0"
           class="st8"
           d="m 200.75952,124.38682 h -5.31812 v -9.78958 h 5.31812 v 1.05833 h -4.1275 v 2.91042 h 4.1275 v 1.00541 h -4.1275 v 3.78354 h 4.1275 z"
           id="path3830" />
        <path
           style="fill:url(#SVGID_10_);stroke-width:0.26458332"
           inkscape:connector-curvature="0"
           class="st9"
           d="m 214.1739,114.91474 -5.50333,8.4402 h 5.45041 v 1.00542 h -7.19666 v -0.21167 l 5.52979,-8.5725 h -4.73604 v -1.00541 h 6.42937 z"
           id="path3837" />
      </g>
      <g
         transform="matrix(0.26458333,0,0,0.26458333,40.08449,99.03974)"
         id="g4444">
	<g
   id="g3955">
		<linearGradient
   y2="208.3857"
   x2="71.051903"
   y1="10.0826"
   x1="71.051903"
   gradientUnits="userSpaceOnUse"
   id="SVGID_11_">
			<stop
   id="stop3843"
   style="stop-color:#00E6CF"
   offset="5.405406e-03" />

			<stop
   id="stop3845"
   style="stop-color:#F07400"
   offset="0.8162" />

		</linearGradient>

		<path
   id="path3848"
   d="m 71,101.8 c 0,0.1 0,0.1 0.1,0.2 0,0 0,-0.1 -0.1,-0.2 z"
   class="st10"
   inkscape:connector-curvature="0"
   style="fill:url(#SVGID_11_)" />

		<linearGradient
   y2="99.406502"
   x2="35.7841"
   y1="74.971397"
   x1="35.7841"
   gradientUnits="userSpaceOnUse"
   id="SVGID_12_">
			<stop
   id="stop3850"
   style="stop-color:#00E6CF"
   offset="5.405406e-03" />

			<stop
   id="stop3852"
   style="stop-color:#F07400"
   offset="0.8162" />

		</linearGradient>

		<polygon
   id="polygon3855"
   points=""
   class="st11"
   style="fill:url(#SVGID_12_)" />

		<linearGradient
   y2="208.3857"
   x2="81.7174"
   y1="10.0826"
   x1="81.7174"
   gradientUnits="userSpaceOnUse"
   id="SVGID_13_">
			<stop
   id="stop3857"
   style="stop-color:#00E6CF"
   offset="5.405406e-03" />

			<stop
   id="stop3859"
   style="stop-color:#F07400"
   offset="0.8162" />

		</linearGradient>

		<path
   id="path3862"
   d="m 81.7,147 v 0 c 0,0 0,-0.1 0,0 z"
   class="st12"
   inkscape:connector-curvature="0"
   style="fill:url(#SVGID_13_)" />

		<linearGradient
   y2="208.3857"
   x2="69.556396"
   y1="10.0826"
   x1="69.556396"
   gradientUnits="userSpaceOnUse"
   id="SVGID_14_">
			<stop
   id="stop3864"
   style="stop-color:#00E6CF"
   offset="5.405406e-03" />

			<stop
   id="stop3866"
   style="stop-color:#F07400"
   offset="0.8162" />

		</linearGradient>

		<path
   id="path3869"
   d="m 67.6,121.5 c 1.2,0.5 3,0.1 4,-0.8 -1.2,-0.8 -2.4,0 -3.8,0.4 0,0 -0.1,0.2 -0.2,0.4 z"
   class="st13"
   inkscape:connector-curvature="0"
   style="fill:url(#SVGID_14_)" />

		<linearGradient
   y2="208.3857"
   x2="64.695801"
   y1="10.0826"
   x1="64.695801"
   gradientUnits="userSpaceOnUse"
   id="SVGID_15_">
			<stop
   id="stop3871"
   style="stop-color:#00E6CF"
   offset="5.405406e-03" />

			<stop
   id="stop3873"
   style="stop-color:#F07400"
   offset="0.8162" />

		</linearGradient>

		<path
   id="path3876"
   d="m 63.8,122.9 c 0.3,0.1 0.5,0.2 1,0.4 0.3,-0.6 0.6,-1.2 0.8,-1.7 -1,-0.4 -1.6,0 -1.8,1.3 z"
   class="st14"
   inkscape:connector-curvature="0"
   style="fill:url(#SVGID_15_)" />

		<linearGradient
   y2="208.3857"
   x2="88.213402"
   y1="10.0826"
   x1="88.213402"
   gradientUnits="userSpaceOnUse"
   id="SVGID_16_">
			<stop
   id="stop3878"
   style="stop-color:#00E6CF"
   offset="5.405406e-03" />

			<stop
   id="stop3880"
   style="stop-color:#F07400"
   offset="0.8162" />

		</linearGradient>

		<path
   id="path3883"
   d="m 87.2,206.6 c 0.4,1 1.1,1.7 1.9,2.2 V 207 c -0.4,-0.4 -1,-0.6 -1.7,-0.8 0,0.1 -0.1,0.2 -0.2,0.4 z"
   class="st15"
   inkscape:connector-curvature="0"
   style="fill:url(#SVGID_16_)" />

		<linearGradient
   y2="208.3857"
   x2="55.715401"
   y1="10.0826"
   x1="55.715401"
   gradientUnits="userSpaceOnUse"
   id="SVGID_17_">
			<stop
   id="stop3885"
   style="stop-color:#00E6CF"
   offset="5.405406e-03" />

			<stop
   id="stop3887"
   style="stop-color:#F07400"
   offset="0.8162" />

		</linearGradient>

		<path
   id="path3890"
   d="m 50.7,147.4 c 2.3,-1 5.7,0.5 7.2,-3 -0.2,0.7 -0.4,1.4 -0.6,2.2 0,0 3.2,-1.4 3.6,-1.8 -0.1,-0.1 -1,-0.7 -0.9,-0.9 0,-0.1 0.2,-0.1 0.3,-0.2 0.3,-0.1 0.5,-0.4 0.4,-0.7 -4.3,0.1 -6.5,2.8 -10,4.4 z"
   class="st16"
   inkscape:connector-curvature="0"
   style="fill:url(#SVGID_17_)" />

		<linearGradient
   y2="208.3857"
   x2="88.794403"
   y1="10.0826"
   x1="88.794403"
   gradientUnits="userSpaceOnUse"
   id="SVGID_18_">
			<stop
   id="stop3892"
   style="stop-color:#00E6CF"
   offset="5.405406e-03" />

			<stop
   id="stop3894"
   style="stop-color:#F07400"
   offset="0.8162" />

		</linearGradient>

		<path
   id="path3897"
   d="m 89.1,201.7 c 0,0 0.1,0.1 0.1,0.1 v -1.7 c -0.3,-0.2 -0.5,-0.4 -0.8,-0.5 0.2,0.7 0.3,1.5 0.7,2.1 z"
   class="st17"
   inkscape:connector-curvature="0"
   style="fill:url(#SVGID_18_)" />

		<linearGradient
   y2="208.3857"
   x2="17.0599"
   y1="10.0826"
   x1="17.0599"
   gradientUnits="userSpaceOnUse"
   id="SVGID_19_">
			<stop
   id="stop3899"
   style="stop-color:#00E6CF"
   offset="5.405406e-03" />

			<stop
   id="stop3901"
   style="stop-color:#F07400"
   offset="0.8162" />

		</linearGradient>

		<path
   id="path3904"
   d="m 3.7,131.3 v 28.5 l 24.7,14.3 C 31.6,165.3 31,155.2 25.8,146.5 20.9,138.2 12.6,132.9 3.7,131.3 Z"
   class="st18"
   inkscape:connector-curvature="0"
   style="fill:url(#SVGID_19_)" />

		<linearGradient
   y2="208.3857"
   x2="35.7803"
   y1="10.0826"
   x1="35.7803"
   gradientUnits="userSpaceOnUse"
   id="SVGID_20_">
			<stop
   id="stop3906"
   style="stop-color:#00E6CF"
   offset="5.405406e-03" />

			<stop
   id="stop3908"
   style="stop-color:#F07400"
   offset="0.8162" />

		</linearGradient>

		<path
   id="path3911"
   d="m 35.8,87.2 v 0 c 0,0 0,0 0,0 z"
   class="st19"
   inkscape:connector-curvature="0"
   style="fill:url(#SVGID_20_)" />

		<linearGradient
   y2="208.3857"
   x2="46.444099"
   y1="10.0826"
   x1="46.444099"
   gradientUnits="userSpaceOnUse"
   id="SVGID_21_">
			<stop
   id="stop3913"
   style="stop-color:#00E6CF"
   offset="5.405406e-03" />

			<stop
   id="stop3915"
   style="stop-color:#F07400"
   offset="0.8162" />

		</linearGradient>

		<path
   id="path3918"
   d="m 88.5,185.6 c 0.1,0.1 0.3,0.2 0.7,0.2 v -4.5 c -1.1,-0.5 -2.2,-1 -3.2,-1.1 -1.8,-0.3 -3.3,0.9 -5,0.4 -1.7,-0.5 -6.9,-3.9 -7.9,-5.4 2.3,-1.4 4.7,-0.5 7.1,-1.1 -1,-0.4 -5.5,-1.8 -6.4,-1.1 v -0.1 c -1.5,0.1 -4.6,0.3 -6.2,0.4 0,-0.2 0,-0.5 0,-0.7 2.9,-0.6 6.8,-0.1 9.9,-0.3 4.4,-0.2 7.8,-0.5 11.6,-0.2 v -3.5 c -1,-0.6 -1.9,-1.2 -3,-1.6 0.5,-0.5 1.1,-0.8 1.8,-0.7 -0.9,-0.3 -1.7,-0.8 -2.3,-1.6 0.3,-0.6 0.8,-1 1.5,-1 0,-1.3 0.3,-1.7 1.9,-2.5 V 160 c -0.4,0 -0.7,0.1 -1,0.3 0,0 0,0 0,0 -1.4,-0.4 -2.9,-0.9 -4.2,-1.3 2.5,-0.9 3.4,-0.7 4.2,1.3 0,0 0.4,-0.2 1,-0.6 V 155 c -1.4,-0.6 -2.7,-1.4 -4.6,-2.4 0.8,-0.3 1.3,-0.9 1.5,-1.6 -0.6,0 -1.1,0 -2.2,0.1 0.9,-0.6 1.4,-0.9 1.9,-1.2 -1.4,0.6 -2.8,0.7 -4.2,0.1 0.6,-0.8 1.4,-1.3 2.4,-1.3 -0.7,-0.6 -1.5,-1.2 -2.3,-1.8 0,0 0,0 0,0 v 0 c 0,0 0,0 -0.1,0 0,0 0,0 0.1,-0.1 0,0 0,0 0,0 4.2,-0.6 3.8,-3.2 7.4,-3.7 v 0 c -2.2,-0.9 -3.8,-0.1 -5.8,-1.4 1.4,-0.8 3.8,-0.4 5.8,-0.4 v -1.8 c -1.7,-0.1 -3.3,-0.7 -5.4,-1.3 1.7,-1.2 0.8,-2.8 2.7,-4.6 0.9,-0.8 1.8,-1.1 2.8,-1.3 V 129 c -1.2,-0.3 -2.2,-0.5 -2.2,-0.5 -3.5,-1.8 -2.9,-1.9 -1.6,-6.3 -0.8,0.8 -1.8,1.8 -2.7,2.8 0.3,-1.5 1.3,-2.7 1.6,-4.2 -2.6,1.2 -5.2,4.9 -6.2,6.5 -0.9,1.5 -1,3 -2.2,4.2 -1.5,1.6 -4,1.9 -5.5,3.7 0.7,-0.7 1.2,-0.8 1.7,-0.3 -1.8,3.8 -6.9,2 -10.7,2.6 -5.2,0.9 -10.6,1.2 -15.9,0.2 2.4,-1.4 5.5,-1.1 8.5,-2 -0.1,-0.2 -0.1,-0.3 -0.2,-0.5 -0.9,0.1 -1.8,-0.1 -2.6,-0.6 3,-3.6 8.6,-4.2 9.9,-9.9 -3.1,-0.4 -3.7,6.1 -6.3,5.9 -2.9,-0.2 0.7,-3 -0.1,-4.1 -1,1.8 -3.8,3 -5.4,4.9 -1.8,2.1 -1.5,3.5 -3.7,4.9 -1.7,-9 5.8,-17.2 14.3,-17.8 0,1 -0.5,1.7 -1.5,2.2 3.6,-2.1 6.9,-4.7 10.9,-6 3.5,-1.2 5.9,-0.3 9.4,-0.4 -0.9,-3.1 -6.2,-1.2 -8.4,-0.7 0.8,-1.3 1.8,-2 2,-3.7 0.3,-2.5 2.7,-4.9 3.3,-7.3 l -2,-1.2 c -0.5,1 -1,1.8 -1.7,1.9 -0.4,-0.4 -0.7,-0.8 -0.8,-1.4 -0.3,0.2 -1.7,0.1 -2,0.1 0.3,-1 0.8,-1.7 1.5,-2.3 L 70,99.4 c -1.9,1.1 -3.8,2.3 -5.9,3.5 1.2,-1.9 2.2,-3.5 3.2,-5.1 l -0.2,-0.1 c -1.2,1.4 -2.2,3.1 -4,3.6 0.2,-1.7 0.9,-3.3 1.7,-4.9 L 62,94.8 c -1.3,1.3 -2.6,2.6 -4.1,3.1 0.8,-0.8 1.2,-1.7 1.3,-2.7 -1.4,1.1 -2.7,2.3 -4,3.5 0.8,-2.8 -0.2,-4.3 2.6,-4 0.2,0 0.7,-0.8 1.1,-1.6 l -9.2,-5.3 c -1.7,2.4 -3.2,4.8 -3.7,7.8 0.7,-1 1.6,-3.4 2.9,-3.7 -0.1,2 1.1,0 1.8,-0.5 -0.6,3.2 0.3,3.8 -1.8,7.2 -1.9,3 -4.6,8.4 -8.1,9.4 -0.5,-2.2 1.2,-3.8 2.3,-5.7 -0.1,-0.1 -0.3,-0.2 -0.4,-0.3 -2.3,3.2 -4.6,6.3 -7,9.5 1.6,-0.7 2.7,-2 4.3,-2.6 -0.4,2.8 -4,4.3 -5.5,3.4 -4.1,-2.5 0.1,-8.4 2.1,-11.3 -0.1,-0.1 -0.2,-0.1 -0.2,-0.2 -0.5,0.3 -1,0.6 -1.4,0.9 1.1,-4.2 4.4,-8.7 6.7,-12.4 0.8,-1.4 2.2,-2.8 3.2,-4.3 l -3.5,-2 c -1.6,2.9 -3.5,6.2 -5.4,6.4 -0.3,3.6 -1.9,6 -5.2,7.8 -0.4,-2.4 4.8,-6.8 5,-9.8 0,0 0,0 0,0 v 0 0 c 0,0 0,0 0,0 -1.3,1.1 -2.9,4.6 -4.8,4.6 0.3,-0.7 2.6,-4.6 0.1,-4.1 0.4,-1.9 3,-2.8 3.5,-4.2 0.2,-0.6 0.6,-5.8 -1.4,-3.5 -0.8,-0.5 -0.8,-1.2 0,-2 L 32.9,78 c 0,0 0,0 0,0 -0.3,0.5 -0.7,1 -1.2,1.9 0,-1 -0.1,-1.7 -0.1,-2.6 l -0.3,-0.2 c -0.4,0.8 -0.6,1.5 -0.9,2.1 -0.2,-0.9 -0.3,-1.9 -0.4,-2.9 v 0 c -1.5,2.9 -1,1.6 -4.3,1.6 1.3,3 -1.5,4.1 -1.8,4.6 -0.5,1.1 -0.5,2.5 -1,3.9 -0.2,-0.2 -0.3,-0.4 -0.5,-0.6 -1.1,0.7 -1.6,1.8 -1.5,3.4 -0.2,0 -0.3,-0.1 -0.5,-0.1 1,-4.7 1.7,-7 1.2,-11.8 2,-0.5 2.4,-2.9 1.8,-4.7 L 22.8,72.3 C 22.5,73 22.3,73.7 22.3,74.4 21,73.3 20.1,72.1 19.8,70.5 l -4.1,-2.3 c -0.8,1.8 -1.2,3.8 -3.3,4.2 0,0 0,0 0,0 v 0 c 0,0 0,0 0,0 0,0 0,0 0,0 2,2 0.7,4.7 -1.2,6.3 0.2,-2.4 0.5,-4 1.2,-6.3 0,0 0,0 0,0 0,0 0,0 0,0 1.3,-2.4 -1.1,-4 -3,-5.3 C 8.5,69.6 9,73 7.2,75 6.6,73.9 6.4,72.8 6.5,71.5 5.1,72.7 6.8,76.7 6,78.5 3.2,75 7.4,64.9 3.8,61.9 v 43.6 c 0.2,-0.3 0.5,-0.6 0.7,-0.9 1.9,2.1 0.5,6.8 0.2,9.5 -0.2,0.4 -0.3,0.8 -0.3,1.3 -0.2,-0.3 -0.5,-0.5 -0.7,-0.6 v 11.1 c 1.6,0.2 3.2,0.4 4.8,0.8 5.9,1.8 8.2,6.1 13,0.8 0.1,2.2 -3.4,4.3 0.7,6.5 2.6,1.4 5.6,-3.4 6.8,-5.6 -0.5,-0.3 -1,-0.3 -1.6,0 2.7,-4.1 4.8,-11.6 9.9,-12.7 -0.4,0.5 -0.7,1 -1.1,1.5 0,0 0.1,0.1 0.1,0.1 0.8,-1.3 1.9,-1.8 3.3,-1.3 -0.2,2.3 -1.6,3.8 -2.8,5.7 2.9,0.6 3,-3.5 5.8,-3.1 -0.8,5.1 -5.3,4.9 -6.9,8.2 1.5,0 2.5,-1.3 4,-0.9 -0.4,0.9 -4.8,3.6 -5.5,2.9 -1.1,-1.1 0.1,-2.7 0.3,-4 -2.6,2.9 -10.6,10 -8.2,14.7 0.6,1.2 2.3,1 2.9,1.7 -0.2,-0.3 0.9,1.4 0.7,1.3 3.1,2.5 -0.1,2.5 4.8,2.5 -1.3,2.5 -1.9,5.1 -0.8,7.9 1,2.5 2.6,4.9 5.4,3.9 -0.6,-0.1 -1.1,-0.2 -1.7,-0.4 1,-0.9 2.2,-1 3.5,-0.3 -1.4,1.6 -2.8,1.7 -4.3,3 0.6,0.5 1.3,0.9 2,1.3 -5.1,1.5 -3.1,6.8 0.3,8.7 -4.9,1.1 -2.6,2.6 -4.1,6.1 -0.1,0.2 -0.7,1.2 -1.3,2.2 l 5.9,3.4 c 3.7,0.6 8.7,2.7 10.3,4.9 -0.6,0 -1.8,-0.4 -3.1,-0.7 l 10.2,5.9 c -0.6,-1.1 -0.9,-2 -1,-2.6 5.7,0.3 9.7,3.6 13.7,7.4 0.8,0.8 3.2,3.1 4.7,5.3 l 11.9,6.9 c -1.2,-1.8 -2.1,-3.8 -3.4,-5 -0.9,-0.8 -2.4,-1.1 -3.4,-2 -0.8,-0.7 0.4,-1.1 0.1,-1.5 -0.7,-0.9 -3.2,-0.9 -2.7,-2.5 1,-2.9 2.8,0.5 6,-0.8 -1.2,-0.9 -2.6,-1.2 -4,-1.8 1.3,-2.8 3.3,1.6 4.4,0.9 1.5,-0.9 2.4,-0.6 4.4,-1.5 -1.4,-1.2 -2.6,-0.3 -4.1,-1.2 1.5,-1.1 3.4,-1.3 5.3,-1.2 v -4.2 c 0,-0.7 -0.3,-1.1 -0.4,-1.5 z m 0.3,-27.4 c -1.1,-0.3 -3.7,-0.5 -3.9,-1.8 1.3,-0.8 4.2,0.2 3.9,1.8 z M 74.1,104.1 c -1,1.3 -1.6,2.3 -3,3.1 -0.1,-0.2 -0.3,-0.4 -0.3,-0.6 0.6,-1.7 1.8,-1.8 3.3,-2.5 z M 35.5,93.9 c 0.3,0.1 0.5,0.2 0.8,0.3 -0.6,1.5 -1.2,3.1 -1.7,4.6 -0.3,-0.1 -0.6,-0.2 -0.9,-0.4 0.5,-1.5 1.1,-3 1.8,-4.5 z m -5.3,-4.1 c -0.5,1.2 -1.2,4.3 -2.1,4.7 -0.9,0.4 -0.5,-1.1 -1.7,-0.1 1,-1.8 1.1,-4.3 3.8,-4.6 z m -2.4,24.6 c -0.5,1 -1,1.9 -1.5,2.8 -1,-0.6 -0.7,-3 0.6,-3.1 0.2,0 0.4,0.2 0.9,0.3 z M 26,84.6 c 0.2,-0.5 0.8,-0.7 1.3,-1.1 -0.2,2.4 -1.9,4 -3.3,5.9 -0.1,-0.1 -0.1,-0.2 -0.2,-0.3 0.8,-1.5 1.4,-3 2.2,-4.5 z m -5.5,9.7 C 21.4,95 21,96 19.5,97.1 19.2,97.2 19,97 19,96.6 18.7,94.8 19.2,94 20.5,94.3 Z M 7.2,101 c 1.5,0.2 2.1,1.1 1.9,2.7 -0.6,-0.4 -1.2,-0.8 -1.9,-1.2 0,-0.6 0,-1 0,-1.5 z m 1,18.5 c -1.4,-1.4 1.1,-7.7 1.6,-9.6 2.1,1.7 -0.2,7.6 -1.6,9.6 z M 9.9,87.1 C 9.8,86 10.2,85.6 11,85.7 c 0.6,1.2 0.6,2.4 0,3.7 -1,0.2 -1.3,-0.5 -1.1,-2.3 z M 11,124 c -1.2,-4 2.1,-11 4.4,-14 -0.9,3.7 -1.3,11.6 -4.4,14 z m 5,-43.3 c 0,-0.5 0.1,-1 0.1,-1.5 0.4,-1.9 1.4,-2.9 3.1,-2.9 0.1,0.1 0.2,0.3 0.2,0.4 -0.7,0.7 -3.5,3.5 -3.4,4 z m 2.1,38.6 c -0.2,0.3 -0.8,0.3 -1.2,0.5 0.5,-1.8 1.7,-2.8 2.9,-4.1 0.1,0 0.2,0.1 0.3,0.1 -0.7,1.1 -1.3,2.4 -2,3.5 z m 2.3,-11.9 c -0.6,0.4 -0.8,1.1 -0.8,1.9 -0.5,-0.6 -1.3,-1.1 -1.4,-1.7 -0.1,-0.7 0.3,-1.5 0.5,-2.3 0.6,0.2 1.1,0.6 1.6,1 1.2,-3 1.9,-6.2 3.3,-9.3 -0.1,3.6 -1.7,6.2 -2.3,9.5 -0.2,1 1.5,2.2 1.7,1.9 -1.7,2.9 -1.8,1.7 -2.6,-1 z m 4.7,6.1 c -0.1,0.3 -0.3,0.6 -0.4,1 -0.5,2.3 -1,4.3 -1.9,6.5 -1.9,-2.2 0.2,-6.2 2.3,-7.5 z m 3.5,8.7 c 0,-0.4 -0.1,-0.8 -0.1,-1 -1.1,0.7 -2.4,1.3 -3.4,2.1 -0.8,1.1 -1.7,2.1 -2.8,2.8 -0.1,-3.8 5.2,-9.1 8.7,-9.8 0.1,2.8 -0.2,4.3 -2.4,5.9 z m 41.7,44.1 c 0.3,-0.1 0.7,-0.2 1,-0.3 0,0 0,0 -0.1,0 0,0 0,0 0,0 -1,-0.6 -2,-0.9 -3.1,-0.8 0,-0.2 0,-0.4 0,-0.6 1.7,-0.1 3.5,-0.2 5.2,-0.2 0.3,0 0.6,0.4 0.8,0.6 -0.9,0.5 -1.8,0.9 -2.9,1 0,0 0,0 0,0 v 0 0 0 c 1.5,0.1 3,0.3 4.7,0.4 -1,0.7 -5.1,1.6 -5.6,-0.1 z m -1.4,-10.5 c 1.3,-0.6 2.6,-1.1 3.9,-1.6 0.1,0.3 0.2,0.6 0.3,0.8 -0.7,0.4 -5.5,1.3 -4.2,0.8 z m 6.5,4.5 c -1.5,1 -2.6,1 -3.5,0.1 0,-1.6 4.1,-0.2 3.5,-0.1 z m 0,-3 c -1.1,0.1 -2.1,0.2 -3.2,0.2 1.8,-2.1 1.6,-1.8 3.8,-1.7 -0.1,0.4 -0.3,0.9 -0.6,1.5 z m 0.9,-8.1 c 1.1,-0.2 2,-0.5 2.9,-0.8 -0.2,0.5 -0.2,0.9 -2.9,0.8 z m 5.5,-14.9 c 2.3,-1.3 3.3,-3.7 6.5,-2.8 -1,2.2 -6.4,4.3 -8.7,3.9 0.7,-0.4 1.5,-0.7 2.2,-1.1 z m -9.8,5.6 c 2.4,-1.1 6.2,-3.2 8.9,-3 -0.2,0.4 -0.3,0.8 -0.5,1.2 -0.1,-0.1 -0.2,-0.2 -0.3,-0.3 -2.1,1.2 -6,3.9 -8.5,2.7 0,-0.1 0.1,-0.5 0.4,-0.6 z m -0.9,4.5 c -0.9,0.2 -1.8,0.3 -2.6,0.5 0,-0.2 0,-0.4 0,-0.5 1.4,-1.2 2.3,-1.2 2.6,0 z m 5.1,4.8 c 0.8,0.6 1.3,1 1.8,1.3 -0.8,0.3 -5.9,1.8 -3.8,2.3 -0.7,1.1 -3.4,1.4 -4.4,1.7 -0.2,0 0.8,-0.7 0.7,-0.9 -1.4,-1.5 -4.2,-0.1 -5.2,-2.9 2.1,-0.5 7,-0.7 10.9,-1.5 z m -11.4,7.5 c -0.5,0.2 -4.9,3 -5.4,1.8 -2.6,-5.5 4.3,-5.2 7.2,-3 -0.6,0.4 -1.2,0.7 -1.8,1.1 -0.1,0 0,0 0,0.1 z m -0.6,-13 c 1.8,-2.6 -0.5,5.4 -0.7,5.6 -2.3,-2 -0.8,-3.4 0.7,-5.6 z m 3.5,-30.6 c -0.2,0.4 -0.3,0.9 -0.6,1.2 -0.6,0.5 -1.3,0.8 -2,1.2 0,0 0,0 0,-0.1 -1,1 -2.1,1.5 -3.5,1.6 0.9,-2.1 3.8,-4.3 6.1,-3.9 z m -9.3,-1.8 c 2.6,-2.9 1.6,-1.2 4.2,-0.8 -0.4,1.4 -3.3,1 -4.2,0.8 z m 2.2,-11.4 c -0.2,0.5 -0.2,1.1 -0.5,1.4 -1.8,2 -3.7,3.9 -5.5,5.9 -0.1,-0.1 -0.2,-0.1 -0.3,-0.2 1.7,-2.4 3.4,-6.2 6.3,-7.1 z M 49.4,98.6 c 6.2,-0.2 0.9,6.4 0.5,5.1 -2,1 -2.7,3.5 -4.8,4.5 -0.6,-2.2 3.3,-7.6 4.3,-9.6 z m -7.6,15.2 c -2.6,-1.3 -0.7,-2.1 1.6,-2.5 -0.6,0.8 -1,1.5 -1.6,2.5 z m 2.8,5.7 c 0.3,0.4 0.7,0.8 0.9,1.2 0.6,2.3 -1.7,3.7 -3.2,4.6 0.5,-2 0.8,-4.2 2.3,-5.8 z m -3.1,9 c -2.2,-1 3.2,-3.8 4.2,-4 0,0.3 0.1,0.6 0,0.8 -0.3,0.7 -0.8,1.4 -1.2,2.1 0.5,0.9 -5.1,9 -6.6,7.6 -0.5,-0.5 3,-6.2 3.6,-6.5 z M 28.8,139 c 0.3,-1.3 0.8,-2.4 1.7,-3.5 -0.5,0.2 -1,0.5 -1.4,0.8 1.1,-3.3 4,-7.2 7.7,-6.9 -0.7,1.7 -1.8,3.2 -2.8,4.8 0,0 0,0 0,0 1.9,-0.4 2.1,-2.6 4,-3.4 -2,4.1 -2.5,4.2 -6.5,6.6 -0.8,0.9 -1.7,1.4 -2.7,1.6 z m 2.7,0.7 c 0.6,-1.4 4.5,-3.7 6,-3.4 -0.5,1.1 -1.5,1.8 -2.9,2 0,0 0,0 0,0.1 -0.9,1.1 -1.9,1.5 -3.1,1.3 z m 0.9,4.6 c -0.1,-0.2 -0.3,-0.4 -0.4,-0.6 2.9,-1.8 5.9,-3.5 8.8,-5.3 0.1,0.2 0.2,0.3 0.3,0.5 -2.3,2.7 -5.2,4.5 -8.7,5.4 z m 5.2,2.4 c 4.2,-3.6 7.7,-6.7 13.6,-5.5 2.4,0.5 8.5,-0.4 10,1.7 0.1,0 0.2,0 0.3,0 -0.1,0 -0.1,0.1 -0.2,0.1 1.5,2.1 -0.7,6.3 -3,7.6 -3.2,1.8 -10,1.2 -13.3,-0.5 0.1,-0.1 0.1,-0.2 0.2,-0.3 1,0.1 10.2,-0.1 9.1,-1.5 0.1,0.1 -6,-0.2 -6.3,-0.1 -2.1,0.3 -6.3,2.4 -8,1.1 0.8,-1 8.2,-4.7 8.1,-3.5 1.4,0 2.1,-0.8 2.2,-2.4 -2.8,-0.1 -4.5,1.6 -6.8,2.3 -1.3,0.4 -4.7,0.9 -5.9,1 z m 16.9,11.4 c -7.6,0 -9.8,-1.3 -1,-3.5 3.8,-1 5.7,7.2 -1.5,4.8 0.8,-0.3 1.7,-0.7 2.5,-1 0.1,-0.1 0.1,-0.2 0,-0.3 z m -5.7,-5.3 c 1.4,-0.4 2.8,-0.3 4.3,0.2 -0.3,1.1 -3.7,0.7 -4.3,-0.2 z m -9.6,1.1 c 2.5,-1.4 5.7,-1.2 8.5,-1.5 0.1,0.4 0.1,0.7 0.2,1.1 -3.1,0.6 -5.7,1.2 -8.7,0.4 z m 15.2,8.1 c 5.8,3.2 -3.6,4.2 -6.3,4.3 -1.1,0 -8,-2.7 -8,-2.6 3.2,-0.6 11,-3.5 14.3,-1.7 z m -2.2,8.5 c 0.8,0.2 1.5,0.5 2.9,0.9 -0.6,1.2 -1.5,1.3 -2.8,0.3 -0.2,-0.1 -0.1,-0.8 -0.1,-1.2 z m -2.7,-1.1 c 0,-0.2 0.1,-0.4 0.1,-0.6 1.6,-0.4 2.9,-0.1 3.8,0.8 -0.7,0.7 -3.1,0 -3.9,-0.2 z m -10.9,-1.7 c 0,-0.2 0,-0.4 0,-0.6 1.7,0 3.3,0 5,0.1 0,0.2 0,0.5 0,0.7 -1.7,-0.1 -3.4,-0.1 -5,-0.2 z m 2.9,5.8 c 2,-0.5 5,-0.7 6.4,1.2 -1.7,0.5 -4.8,-0.4 -6.4,-0.6 0,-0.3 0,-0.5 0,-0.6 z m 10.5,7.4 c -2.3,-0.2 -5.3,-3.9 -6.1,-4 2.5,0.4 4.7,1.5 7.1,2.3 -0.4,0.6 -0.7,1.1 -1,1.7 z m 1.8,2 c 0.4,-4.2 2.8,-3.3 5.3,-1.8 -0.4,1.9 -5.4,2.4 -5.3,1.8 z M 64.5,167 c -0.3,0.3 -0.8,0.5 -1.2,0.8 0,0.1 0.1,0.2 0.1,0.3 -1.4,0.4 -7.1,2.6 -6.1,-0.7 1,-3.3 8.1,-1.4 7.2,-0.4 z m -1.2,-5.1 c -1,-0.1 -1.9,-0.6 -2.9,-1 0.9,-2 3.1,-2.7 5.1,-2.5 -0.4,1.2 -0.8,3.6 -2.2,3.5 z m 12.3,34 c -0.7,0.4 -0.8,1 -0.5,1.8 -1.3,-0.8 -3.4,-2.1 -3.8,-3.7 1.6,0.3 3.3,-0.6 4.5,1.1 0,0.2 0,0.6 -0.2,0.8 z m -5.4,-5.7 c -3.7,-2.3 -7.5,-6.5 -0.8,-5.9 -0.2,-0.4 -0.3,-0.7 -0.5,-1.1 -0.1,0 -0.1,0 -0.2,0.1 -0.1,-0.4 -0.2,-0.9 -0.3,-1.3 1.6,-0.1 3.5,-1.1 3.9,1 -0.7,0.1 -1.3,0.2 -2,0.3 -0.5,0.5 6.7,3.4 7.3,4 6.3,5.9 -4.4,4.7 -7.4,2.9 z"
   class="st20"
   inkscape:connector-curvature="0"
   style="fill:url(#SVGID_21_)" />

		<linearGradient
   y2="208.3857"
   x2="32.199902"
   y1="10.0826"
   x1="32.199902"
   gradientUnits="userSpaceOnUse"
   id="SVGID_22_">
			<stop
   id="stop3920"
   style="stop-color:#00E6CF"
   offset="5.405406e-03" />

			<stop
   id="stop3922"
   style="stop-color:#F07400"
   offset="0.8162" />

		</linearGradient>

		<path
   id="path3925"
   d="m 33.9,134.3 v 0 c 0.1,0 0.1,0 0,0 0,0 0,0 0,0 v 0 c 0,0 0,0 0,0 -1.6,-0.9 -2.6,0.1 -3.5,1.2 0,0 0,0 0.1,0 0,0 0,0 0,0 1.2,-0.4 2.3,-0.8 3.4,-1.2 0.1,0 0.1,0 0,0 z"
   class="st21"
   inkscape:connector-curvature="0"
   style="fill:url(#SVGID_22_)" />

		<linearGradient
   y2="208.3857"
   x2="46.118401"
   y1="10.0826"
   x1="46.118401"
   gradientUnits="userSpaceOnUse"
   id="SVGID_23_">
			<stop
   id="stop3927"
   style="stop-color:#00E6CF"
   offset="5.405406e-03" />

			<stop
   id="stop3929"
   style="stop-color:#F07400"
   offset="0.8162" />

		</linearGradient>

		<path
   id="path3932"
   d="m 48.3,93.9 c -1.6,2.9 -3.2,5.7 -4.8,8.6 1.8,-1.6 4.3,-3.6 5.3,-5.7 -2.3,-0.6 -0.2,-2 -0.5,-2.9 z"
   class="st22"
   inkscape:connector-curvature="0"
   style="fill:url(#SVGID_23_)" />

		<linearGradient
   y2="208.3857"
   x2="44.998699"
   y1="10.0826"
   x1="44.998699"
   gradientUnits="userSpaceOnUse"
   id="SVGID_24_">
			<stop
   id="stop3934"
   style="stop-color:#00E6CF"
   offset="5.405406e-03" />

			<stop
   id="stop3936"
   style="stop-color:#F07400"
   offset="0.8162" />

		</linearGradient>

		<path
   id="path3939"
   d="m 46.8,86.1 -1.3,-0.8 c 0,0.1 0,0.2 0,0.3 -0.7,2.8 -2.5,5 -2.3,8 0.9,-2.7 2.6,-5.1 3.6,-7.5 z"
   class="st23"
   inkscape:connector-curvature="0"
   style="fill:url(#SVGID_24_)" />

		<linearGradient
   y2="208.3857"
   x2="36.852001"
   y1="10.0826"
   x1="36.852001"
   gradientUnits="userSpaceOnUse"
   id="SVGID_25_">
			<stop
   id="stop3941"
   style="stop-color:#00E6CF"
   offset="5.405406e-03" />

			<stop
   id="stop3943"
   style="stop-color:#F07400"
   offset="0.8162" />

		</linearGradient>

		<path
   id="path3946"
   d="m 35.8,87.2 c 0,0 0,0 0,0 1.9,-1.9 2.7,-2.2 1.7,-4.8 -1.3,1.7 -1.3,2.8 -1.7,4.8 z"
   class="st24"
   inkscape:connector-curvature="0"
   style="fill:url(#SVGID_25_)" />

		<linearGradient
   y2="208.3857"
   x2="41.2756"
   y1="10.0826"
   x1="41.2756"
   gradientUnits="userSpaceOnUse"
   id="SVGID_26_">
			<stop
   id="stop3948"
   style="stop-color:#00E6CF"
   offset="5.405406e-03" />

			<stop
   id="stop3950"
   style="stop-color:#F07400"
   offset="0.8162" />

		</linearGradient>

		<path
   id="path3953"
   d="m 39.4,96.8 c -0.1,0.1 3.2,-2.4 3.8,-3.2 -1.7,0.6 -2.9,1.7 -3.8,3.2 z"
   class="st25"
   inkscape:connector-curvature="0"
   style="fill:url(#SVGID_26_)" />

	</g>

	<g
   id="g4426">
		<linearGradient
   y2="208.3857"
   x2="182.5323"
   y1="10.0826"
   x1="182.5323"
   gradientUnits="userSpaceOnUse"
   id="SVGID_27_">
			<stop
   id="stop3957"
   style="stop-color:#00E6CF"
   offset="5.405406e-03" />

			<stop
   id="stop3959"
   style="stop-color:#F07400"
   offset="0.8162" />

		</linearGradient>

		<path
   id="path3962"
   d="m 180.8,81.9 c -0.2,0.1 -0.5,0.2 -0.7,0.3 -0.2,0.1 -0.4,0.2 -0.6,0.4 -0.1,0.2 -0.1,0.5 0.1,0.6 0.1,0.1 0.3,0.1 0.4,0.1 0.4,0 5.7,-0.4 5.7,-0.1 v -1.6 c -1.7,-0.3 -3.3,-0.2 -4.9,0.3 z"
   class="st26"
   inkscape:connector-curvature="0"
   style="fill:url(#SVGID_27_)" />

		<linearGradient
   y2="208.3828"
   x2="161.85271"
   y1="10.0826"
   x1="161.85271"
   gradientUnits="userSpaceOnUse"
   id="SVGID_28_">
			<stop
   id="stop3964"
   style="stop-color:#00E6CF"
   offset="5.405406e-03" />

			<stop
   id="stop3966"
   style="stop-color:#F07400"
   offset="0.8162" />

		</linearGradient>

		<path
   id="path3969"
   d="m 157.9,102.5 c 1.4,-0.2 2.7,-0.4 4.1,-0.3 5.8,0.3 11.4,1.1 16.9,3.2 2.3,0.9 4.5,1.7 6.8,2.6 v -1.8 c -3.4,-1.4 -7,-2.4 -10.5,-3.4 -4.4,-1.2 -9,-2 -13.5,-2.1 -7.2,-0.2 -14.4,0.3 -21.6,0.6 -0.4,0 -1.4,0.1 -1.8,0.3 -0.2,0.1 -0.3,0.4 -0.2,0.6 0.1,0.1 0.1,0.1 0.2,0.2 2.7,1.2 6.6,0.9 9.5,0.9 3.4,-0.2 6.8,-0.4 10.1,-0.8 z"
   class="st27"
   inkscape:connector-curvature="0"
   style="fill:url(#SVGID_28_)" />

		<linearGradient
   y2="208.3857"
   x2="161.86681"
   y1="10.0826"
   x1="161.86681"
   gradientUnits="userSpaceOnUse"
   id="SVGID_29_">
			<stop
   id="stop3971"
   style="stop-color:#00E6CF"
   offset="5.405406e-03" />

			<stop
   id="stop3973"
   style="stop-color:#F07400"
   offset="0.8162" />

		</linearGradient>

		<path
   id="path3976"
   d="m 184.6,150.3 c 0,-0.1 0,-0.2 -0.1,-0.4 -0.2,-0.9 -0.6,-1.7 -1.1,-2.4 -1,-1.6 -2.4,-2.8 -4,-3.7 -7.6,-4 -14.7,-3.1 -21.8,1 -1.5,0.8 -2.9,1.8 -4.4,2.7 -0.7,0.5 -1.4,0.9 -2.2,1.4 -0.5,0.3 -1.2,0.6 -1.8,0.5 -0.4,-0.1 -0.9,0 -1.3,0.1 -0.8,0.2 -1.5,0.8 -2,1.4 -1.9,2.4 -3.6,5 -5.3,7.5 -0.8,1.2 -1.9,2.4 -2.2,3.7 -0.4,2.5 -0.2,5.1 -0.4,7.6 -0.2,2.9 0.4,5.6 0.8,8.5 0.4,2.6 1.4,5 2.1,7.4 l 2.1,-1.2 c -1.7,-4.7 -2.1,-9.7 -2,-14.8 0,-1.9 1,-4 2,-5.7 1.3,-2.4 3,-4.6 4.5,-7 2.3,-3.7 5.1,-7.1 9,-9.2 4.6,-2.5 9.1,-5.2 14.8,-3.8 1.4,0.3 2.9,1.5 3.9,1.2 1.6,-0.4 3,0.1 4.1,1.3 0.4,0.4 2.5,3.1 2.1,3.5 -0.2,0.1 -0.4,0.1 -0.7,0.1 -0.8,-0.1 -1.3,-1 -1.8,-1.6 -0.6,-0.7 -1.2,-1.3 -2,-1.7 -2.2,-1 -4.7,-1.4 -7.1,-1.9 -1.2,-0.2 -2.6,-0.2 -3.7,0.1 -5.4,1.5 -10.7,3.9 -14.2,8.1 -3.8,4.5 -6.3,10.1 -8.7,15.5 -0.9,2 0.1,4.9 0.2,7.4 0,0.4 0,0.8 0,1.2 -0.3,2.3 0.3,4.4 1.1,6.4 l 2.4,-1.4 c -2,-7 -0.8,-13.9 2.4,-21 1.2,-2.6 3.6,-3.7 4.9,-6 1.4,-2.6 3.8,-4.3 6.3,-5.7 1.3,-0.7 2.6,-1.2 3.8,-1.8 1.6,-0.7 3.3,-0.8 5.1,-0.9 0.2,0 0.3,0 0.4,0.1 0.1,0.2 -0.1,0.3 -0.2,0.4 -0.9,0.6 -2.1,0.7 -3.1,1 -1.1,0.4 -2.3,0.7 -3.4,1.2 -2.1,0.9 -4.1,2.1 -5.7,3.8 -1.7,1.8 -3,3.9 -4.4,5.9 -2.7,3.8 -4.3,7.7 -4.8,12.5 -0.4,3.3 -0.2,6.4 0.5,9.4 l 2.2,-1.3 c -0.2,-1.6 -0.3,-3.2 -0.3,-4.8 -0.2,-4.8 0.8,-9.3 3.3,-13.5 4,-6.8 9.5,-11.6 17.7,-12.4 0.5,0 1.1,0.7 1.6,1.1 -0.6,0.2 -1.3,0.6 -1.8,0.5 -4.3,-0.6 -7.4,1.6 -10.4,4.2 -3.8,3.3 -5.8,7.7 -7.4,12.4 -1.3,3.8 -1.6,7.6 -0.9,11.4 l 2.5,-1.5 c -0.5,-3.4 -0.3,-6.9 0.6,-10.5 1.4,-5.9 5.6,-11.8 11.6,-13.7 0.1,0 0.2,-0.1 0.3,0 0.2,0.1 0.1,0.4 -0.1,0.5 -0.6,0.7 -1.4,1.1 -2.1,1.6 -0.8,0.6 -1.5,1.3 -2.2,2 -1.4,1.5 -2.4,3.3 -3.3,5.2 -2.1,4.5 -3.3,8.9 -2.9,13.7 l 2,-1.2 c 0.1,0 -0.1,-2 0,-2.2 0.1,-0.8 0.2,-1.6 0.4,-2.4 0.4,-1.4 1.3,-2.8 1.4,-4.3 0,-0.5 -0.1,-0.9 0.1,-1.4 0.9,-3.1 3.2,-5.3 5.2,-7.7 2.7,-3.2 3.9,-3.6 7.6,-1.7 2.9,1.4 4.5,4 5.5,6.9 0.1,0.3 -0.2,0.7 -0.4,1 -0.3,-0.2 -0.8,-0.3 -0.9,-0.5 -0.6,-1.1 -1.1,-2.3 -1.7,-3.3 -2,-3.4 -4,-3.6 -6.3,-0.3 -2.2,3.2 -4.1,6.7 -3.5,11.2 0,0.1 0,0.2 0.1,0.3 l 2.7,-1.5 c -0.5,-1 -0.7,-2 -0.6,-3.2 0.2,-2.1 2.5,-5.5 4.1,-5.9 1.5,-0.4 3.7,1.7 4.7,4.4 l 4.3,-2.5 c 0.4,-0.7 0.9,-1.5 1.4,-2.2 0,0.5 0,0.9 0,1.4 0,0 2.3,-1.3 2.3,-1.3 0.1,-0.1 0,-1.3 0,-1.4 0,-1.1 0,-2.2 0,-3.3 0,-1.6 0,-3.3 0,-4.9 0,0.4 -0.2,0.7 -0.6,0.6 -0.2,0.2 -0.2,0 -0.3,-0.2 z m -34.6,1.1 c -0.2,0.2 -0.4,0.3 -0.6,0.5 -3.2,2.5 -4.7,6.5 -6.6,10 -0.1,0.1 -0.1,0.3 -0.2,0.4 -0.2,0.2 -1,1.5 -1.3,1.2 -0.2,-0.2 0,-0.2 0,-0.4 0,-0.4 0.2,-1.1 0.3,-1.5 0.2,-0.4 0.3,-0.8 0.5,-1.3 0.8,-1.9 1.8,-3.8 3.1,-5.5 1.3,-1.7 2.9,-3.1 4.4,-4.6 0.1,-0.1 0.3,-0.3 0.5,-0.2 0.1,0.1 0.2,0.2 0.2,0.3 0.1,0.2 0.1,0.5 0.1,0.7 -0.2,0.2 -0.3,0.3 -0.4,0.4 z m 23.6,1.7 c 0,-0.2 0.1,-0.3 0.1,-0.5 0.2,0.1 0.5,0.3 0.7,0.4 -0.3,0 -0.5,0.1 -0.8,0.1 z m 2.7,0.1 c -0.5,-0.1 -1,-0.1 -1.4,-0.2 1.2,-1.5 0.2,-2.2 -1.1,-2.8 0.5,-1 1.3,-1.2 2.2,-0.5 0.6,0.5 0.9,1.3 1.4,2 0.7,1.3 0.3,1.7 -1.1,1.5 z m 7.2,6 c -0.4,-2.1 -0.9,-4.2 -1.3,-6.4 0,-0.2 0.3,-0.5 0.5,-0.5 0.1,-0.1 0.5,0.1 0.6,0.2 0.7,1.3 1.5,2.6 2.1,3.9 0.7,1.9 -1.3,1.9 -1.9,2.8 z"
   class="st28"
   inkscape:connector-curvature="0"
   style="fill:url(#SVGID_29_)" />

		<linearGradient
   y2="208.3857"
   x2="107.9613"
   y1="10.0826"
   x1="107.9613"
   gradientUnits="userSpaceOnUse"
   id="SVGID_30_">
			<stop
   id="stop3978"
   style="stop-color:#00E6CF"
   offset="5.405406e-03" />

			<stop
   id="stop3980"
   style="stop-color:#F07400"
   offset="0.8162" />

		</linearGradient>

		<path
   id="path3983"
   d="m 100.5,177.3 c -0.4,0.1 -0.6,0.6 -0.5,1.1 0.1,1.3 0.5,2.4 1.2,3.5 4.4,6.4 8.9,12.7 13.3,19.1 l 1.5,-0.9 c -3.6,-5.7 -7.2,-11.5 -11.1,-17 -1.1,-1.5 -2,-3 -3,-4.5 -0.2,-0.4 -0.6,-1.2 -1.1,-1.3 -0.1,0 -0.2,0 -0.3,0 z"
   class="st29"
   inkscape:connector-curvature="0"
   style="fill:url(#SVGID_30_)" />

		<linearGradient
   y2="208.3857"
   x2="131.19749"
   y1="10.0826"
   x1="131.19749"
   gradientUnits="userSpaceOnUse"
   id="SVGID_31_">
			<stop
   id="stop3985"
   style="stop-color:#00E6CF"
   offset="5.405406e-03" />

			<stop
   id="stop3987"
   style="stop-color:#F07400"
   offset="0.8162" />

		</linearGradient>

		<path
   id="path3990"
   d="m 136.5,101.8 c -0.7,0 -1.4,-0.5 -2.1,-0.7 -1,-0.2 -2.1,-0.3 -3.1,-0.3 -1.5,0 -4.2,-0.1 -5.3,0.9 -0.1,0.1 -0.2,0.3 -0.1,0.4 0,0 0.1,0.1 0.2,0.1 3.2,0.3 7,1 10.1,0.1 0.2,-0.1 0.3,-0.3 0.3,-0.5 z"
   class="st30"
   inkscape:connector-curvature="0"
   style="fill:url(#SVGID_31_)" />

		<linearGradient
   y2="208.3857"
   x2="182.8644"
   y1="10.0826"
   x1="182.8644"
   gradientUnits="userSpaceOnUse"
   id="SVGID_32_">
			<stop
   id="stop3992"
   style="stop-color:#00E6CF"
   offset="5.405406e-03" />

			<stop
   id="stop3994"
   style="stop-color:#F07400"
   offset="0.8162" />

		</linearGradient>

		<path
   id="path3997"
   d="m 185.6,67.2 c 0.1,-0.6 0,-1.3 0,-2 -0.2,-0.1 -0.5,-0.1 -0.7,-0.2 -1.5,-0.4 -2.6,-0.5 -4.1,-0.6 -0.3,0 -0.6,0 -0.7,0.2 -0.1,0.2 -0.1,0.4 0.1,0.6 0.1,0.2 0.3,0.3 0.5,0.4 1.5,0.9 3.4,0.8 4.9,1.6 0,0 0,0 0,0 z"
   class="st31"
   inkscape:connector-curvature="0"
   style="fill:url(#SVGID_32_)" />

		<linearGradient
   y2="208.3857"
   x2="152.5087"
   y1="10.0826"
   x1="152.5087"
   gradientUnits="userSpaceOnUse"
   id="SVGID_33_">
			<stop
   id="stop3999"
   style="stop-color:#00E6CF"
   offset="5.405406e-03" />

			<stop
   id="stop4001"
   style="stop-color:#F07400"
   offset="0.8162" />

		</linearGradient>

		<path
   id="path4004"
   d="m 133.4,94.4 c -0.2,0.1 -0.4,0.4 -0.9,0.9 0.8,0.1 1.2,0.2 1.6,0.1 1.9,-0.1 3.9,-0.4 5.8,-0.3 5.1,0.1 10.2,0.4 15.3,0.4 2.8,0 5.7,-0.3 8.5,-0.4 1.4,-0.1 2.8,-0.1 4.3,0 1.2,0.1 2.7,0.6 3.8,0.6 0.3,0 0.7,-0.3 0.7,-0.6 0.1,-1.1 -3.6,-1.6 -4.4,-1.7 -2,-0.4 -4.1,-0.5 -6.1,-0.1 -3.3,0.6 -6.7,1.1 -9.9,0.7 -5.4,-0.6 -10.8,-0.2 -16.1,0.2 -1,0 -1.8,0.1 -2.6,0.2 z"
   class="st32"
   inkscape:connector-curvature="0"
   style="fill:url(#SVGID_33_)" />

		<linearGradient
   y2="207.7941"
   x2="134.51801"
   y1="10.5455"
   x1="134.51801"
   gradientUnits="userSpaceOnUse"
   id="SVGID_34_">
			<stop
   id="stop4006"
   style="stop-color:#00E6CF"
   offset="5.405406e-03" />

			<stop
   id="stop4008"
   style="stop-color:#F07400"
   offset="0.8162" />

		</linearGradient>

		<path
   id="path4011"
   d="m 133.1,98.4 c -0.1,0 -0.1,0 0,0 0.4,0.1 1.1,-0.1 1.5,-0.1 0.3,0 1.2,0.2 1.4,-0.2 0.2,-0.5 -0.8,-1 -1.2,-1 -0.7,0 -1.6,0.7 -1.7,1.3 z"
   class="st33"
   inkscape:connector-curvature="0"
   style="fill:url(#SVGID_34_)" />

		<linearGradient
   y2="208.3857"
   x2="148.1626"
   y1="10.0826"
   x1="148.1626"
   gradientUnits="userSpaceOnUse"
   id="SVGID_35_">
			<stop
   id="stop4013"
   style="stop-color:#00E6CF"
   offset="5.405406e-03" />

			<stop
   id="stop4015"
   style="stop-color:#F07400"
   offset="0.8162" />

		</linearGradient>

		<path
   id="path4018"
   d="m 143.5,87.2 c -0.2,0.9 3.7,1 4.3,1 1.5,0.2 3.3,0.2 4.7,-0.2 0.2,-0.1 0.4,-0.2 0.3,-0.4 0,-0.1 -0.1,-0.1 -0.1,-0.2 -0.6,-0.4 -1.1,-0.3 -1.8,-0.3 -0.9,0 -1.8,-0.2 -2.6,-0.3 -1.1,-0.1 -3.4,-0.8 -4.4,-0.3 -0.2,0.3 -0.4,0.4 -0.4,0.7 z"
   class="st34"
   inkscape:connector-curvature="0"
   style="fill:url(#SVGID_35_)" />

		<linearGradient
   y2="208.3857"
   x2="152.80881"
   y1="10.0826"
   x1="152.80881"
   gradientUnits="userSpaceOnUse"
   id="SVGID_36_">
			<stop
   id="stop4020"
   style="stop-color:#00E6CF"
   offset="5.405406e-03" />

			<stop
   id="stop4022"
   style="stop-color:#F07400"
   offset="0.8162" />

		</linearGradient>

		<path
   id="path4025"
   d="m 164.2,98.4 c 1.3,-0.1 2.9,0 4.2,-0.5 0.2,-0.1 0.4,-0.2 0.3,-0.4 0,-0.1 -0.1,-0.1 -0.2,-0.2 -0.4,-0.3 -0.9,-0.3 -1.4,-0.4 -1.3,-0.2 -2.6,-0.5 -3.9,-0.1 -1.4,0.3 -2.9,0.3 -4.4,0.3 -3.3,0.1 -6.5,0.2 -9.8,0.3 -3.2,0 -6.3,-0.2 -9.5,-0.3 -1.1,0 -2.2,-0.1 -2.5,1.2 3.7,0.3 7.4,0.9 11.1,0.9 5.3,0 10.7,-0.5 16.1,-0.8 z"
   class="st35"
   inkscape:connector-curvature="0"
   style="fill:url(#SVGID_36_)" />

		<linearGradient
   y2="163.04649"
   x2="132.66499"
   y1="10.0826"
   x1="132.66499"
   gradientUnits="userSpaceOnUse"
   id="SVGID_37_">
			<stop
   id="stop4027"
   style="stop-color:#00E6CF"
   offset="5.405406e-03" />

			<stop
   id="stop4029"
   style="stop-color:#F07400"
   offset="0.8162" />

		</linearGradient>

		<path
   id="path4032"
   d="m 132.7,98.3 c 0,0 0,0 0,0 0,0 -0.1,0 0,0 -0.1,0 0,0 0,0 0,0 0,0 0,0 z"
   class="st36"
   inkscape:connector-curvature="0"
   style="fill:url(#SVGID_37_)" />

		<linearGradient
   y2="208.3857"
   x2="131.04449"
   y1="10.0826"
   x1="131.04449"
   gradientUnits="userSpaceOnUse"
   id="SVGID_38_">
			<stop
   id="stop4034"
   style="stop-color:#00E6CF"
   offset="5.405406e-03" />

			<stop
   id="stop4036"
   style="stop-color:#F07400"
   offset="0.8162" />

		</linearGradient>

		<path
   id="path4039"
   d="m 130.1,98.7 c 0.8,0 2.1,-0.5 2.5,-0.4 -0.3,0 -3.5,-0.6 -3.1,0.2 0.1,0.2 0.3,0.2 0.6,0.2 z"
   class="st37"
   inkscape:connector-curvature="0"
   style="fill:url(#SVGID_38_)" />

		<linearGradient
   y2="208.3857"
   x2="149.0715"
   y1="10.0826"
   x1="149.0715"
   gradientUnits="userSpaceOnUse"
   id="SVGID_39_">
			<stop
   id="stop4041"
   style="stop-color:#00E6CF"
   offset="5.405406e-03" />

			<stop
   id="stop4043"
   style="stop-color:#F07400"
   offset="0.8162" />

		</linearGradient>

		<path
   id="path4046"
   d="m 137.6,91 c 0.1,0.2 0.2,0.4 0.4,0.5 0.5,0.3 1.2,0.2 1.7,0.1 2,-0.1 4,-0.1 5.9,-0.1 3.9,0 7.8,0.2 11.6,0.8 1,0.1 2,0.5 3,0 0.2,-0.1 0.5,-0.3 0.4,-0.6 0,-0.1 -0.2,-0.2 -0.3,-0.2 -1,-0.5 -2.2,-0.4 -3.2,-0.6 -1.2,-0.1 -2.5,-0.3 -3.7,-0.4 -2.5,-0.3 -4.9,-0.5 -7.4,-0.6 -2,-0.1 -4,0.1 -6,0.3 -0.5,0 -1.8,-0.2 -2.2,0 -0.3,0.2 -0.3,0.5 -0.2,0.8 z"
   class="st38"
   inkscape:connector-curvature="0"
   style="fill:url(#SVGID_39_)" />

		<linearGradient
   y2="208.3857"
   x2="169.52431"
   y1="10.0826"
   x1="169.52431"
   gradientUnits="userSpaceOnUse"
   id="SVGID_40_">
			<stop
   id="stop4048"
   style="stop-color:#00E6CF"
   offset="5.405406e-03" />

			<stop
   id="stop4050"
   style="stop-color:#F07400"
   offset="0.8162" />

		</linearGradient>

		<path
   id="path4053"
   d="m 161.8,88.5 c -1.5,-0.2 -3,-0.4 -4.5,-0.6 -1.2,-0.1 -2.8,-0.9 -3.9,-0.2 0.4,0.7 1,0.6 1.6,0.8 0.9,0.3 1.8,0.7 2.7,1 1.8,0.5 3.7,0.8 5.6,1 7.3,1.1 14.5,2.5 21.5,5.1 0.3,0.1 0.6,0.2 0.8,0.3 v -1.6 c -5.9,-1.9 -12.1,-3.1 -18.1,-4.6 -1.9,-0.5 -3.8,-1 -5.7,-1.2 z"
   class="st39"
   inkscape:connector-curvature="0"
   style="fill:url(#SVGID_40_)" />

		<linearGradient
   y2="208.3857"
   x2="176.03349"
   y1="10.0826"
   x1="176.03349"
   gradientUnits="userSpaceOnUse"
   id="SVGID_41_">
			<stop
   id="stop4055"
   style="stop-color:#00E6CF"
   offset="5.405406e-03" />

			<stop
   id="stop4057"
   style="stop-color:#F07400"
   offset="0.8162" />

		</linearGradient>

		<path
   id="path4060"
   d="m 177.8,82.3 c 0.1,-0.1 0,-0.3 -0.1,-0.4 -0.1,-0.1 -0.3,-0.2 -0.5,-0.2 -0.6,-0.2 -2.4,-1 -2.9,-0.4 -0.5,0.6 1.5,0.9 2,1.1 0.4,0.1 0.8,0.3 1.2,0.2 0.1,-0.2 0.2,-0.2 0.3,-0.3 0,0 0,0 0,0 z"
   class="st40"
   inkscape:connector-curvature="0"
   style="fill:url(#SVGID_41_)" />

		<linearGradient
   y2="208.3857"
   x2="162.37601"
   y1="10.0826"
   x1="162.37601"
   gradientUnits="userSpaceOnUse"
   id="SVGID_42_">
			<stop
   id="stop4062"
   style="stop-color:#00E6CF"
   offset="5.405406e-03" />

			<stop
   id="stop4064"
   style="stop-color:#F07400"
   offset="0.8162" />

		</linearGradient>

		<path
   id="path4067"
   d="m 171.7,84.5 c 0.5,-0.1 0.8,-0.2 0.8,-0.6 0,-0.4 -1.9,-1 -2.3,-1.1 -5.1,-1.9 -10.5,-2.3 -15.8,-2.6 -0.5,0 -2.1,-0.3 -2.2,0.3 -0.1,0.8 1.7,1 2.2,1.1 3.2,0.6 6.5,1.2 9.7,1.8 0.8,0.2 5.6,1.4 7.6,1.1 z"
   class="st41"
   inkscape:connector-curvature="0"
   style="fill:url(#SVGID_42_)" />

		<linearGradient
   y2="208.3857"
   x2="165.97321"
   y1="10.0826"
   x1="165.97321"
   gradientUnits="userSpaceOnUse"
   id="SVGID_43_">
			<stop
   id="stop4069"
   style="stop-color:#00E6CF"
   offset="5.405406e-03" />

			<stop
   id="stop4071"
   style="stop-color:#F07400"
   offset="0.8162" />

		</linearGradient>

		<path
   id="path4074"
   d="m 172.3,81.5 c 0.4,0.1 0.9,0 0.9,-0.4 -0.5,-0.5 -1.2,-0.9 -0.5,-1.4 0.4,-0.3 1.1,-0.2 1.6,-0.4 0.3,-0.1 0.6,-0.3 0.6,-0.6 0,-0.3 -0.3,-0.6 -0.6,-0.7 -0.9,-0.3 -1.7,0 -2.6,-0.1 -0.7,0 -1.5,-0.2 -2.2,-0.2 -1.9,-0.1 -3.9,-0.2 -5.8,-0.3 -1.2,-0.1 -2.4,-0.1 -3.7,-0.2 -0.7,0 -1.9,-0.5 -2.5,-0.3 -0.3,0.1 -0.6,0.6 -0.4,0.9 0.1,0.1 0.2,0.2 0.4,0.3 2.1,1 5.1,0.9 7.4,1.3 1.5,0.3 3,0.6 4.5,1 0.9,0.3 1.8,0.9 2.9,1.1 0,0 0,0 0,0 z"
   class="st42"
   inkscape:connector-curvature="0"
   style="fill:url(#SVGID_43_)" />

		<linearGradient
   y2="208.3857"
   x2="116.1374"
   y1="10.0826"
   x1="116.1374"
   gradientUnits="userSpaceOnUse"
   id="SVGID_44_">
			<stop
   id="stop4076"
   style="stop-color:#00E6CF"
   offset="5.405406e-03" />

			<stop
   id="stop4078"
   style="stop-color:#F07400"
   offset="0.8162" />

		</linearGradient>

		<path
   id="path4081"
   d="m 113.3,146.1 c -1.1,0.5 -2.4,0.7 -3.6,1.1 -1.7,0.4 -3.4,0.8 -5.2,1.1 -1.8,0.3 -5.2,0.4 -6.3,2.2 -0.1,0.1 -0.1,0.2 -0.1,0.3 0,0.2 0.3,0.3 0.4,0.3 2.6,0.4 5.2,-0.6 7.8,-0.6 2.6,0 5.2,-1.6 7.7,-2.6 4,-1.5 8.1,-3 11.9,-4.8 0.5,0 1.5,-0.8 2,-1 0.7,-0.4 1.4,-0.8 2.1,-1.2 1.2,-0.8 2.5,-1.5 3.7,-2.3 0.1,-0.1 0.3,-0.3 0.2,-0.4 -0.6,-0.1 -1.2,0 -1.8,0.2 -6.2,2.5 -12.5,5.2 -18.8,7.7 z"
   class="st43"
   inkscape:connector-curvature="0"
   style="fill:url(#SVGID_44_)" />

		<linearGradient
   y2="208.3857"
   x2="179.3089"
   y1="10.0826"
   x1="179.3089"
   gradientUnits="userSpaceOnUse"
   id="SVGID_45_">
			<stop
   id="stop4083"
   style="stop-color:#00E6CF"
   offset="5.405406e-03" />

			<stop
   id="stop4085"
   style="stop-color:#F07400"
   offset="0.8162" />

		</linearGradient>

		<path
   id="path4088"
   d="m 184.9,87.5 c 0.2,0.1 0.5,0.1 0.7,0.2 V 86 c -0.2,0 -0.4,-0.1 -0.7,-0.1 -2.2,-0.4 -4.5,-0.6 -6.7,-0.9 -1.1,-0.1 -2.2,-0.2 -3.3,-0.4 -0.3,0 -2.3,-0.7 -2,0.1 0,0.1 0.2,0.2 0.3,0.3 0.7,0.4 1.4,0.3 2.2,0.4 1.1,0.1 2.1,0.5 3.2,0.7 2.1,0.4 4.3,0.9 6.3,1.4 z"
   class="st44"
   inkscape:connector-curvature="0"
   style="fill:url(#SVGID_45_)" />

		<linearGradient
   y2="208.3857"
   x2="180.2807"
   y1="10.0826"
   x1="180.2807"
   gradientUnits="userSpaceOnUse"
   id="SVGID_46_">
			<stop
   id="stop4090"
   style="stop-color:#00E6CF"
   offset="5.405406e-03" />

			<stop
   id="stop4092"
   style="stop-color:#F07400"
   offset="0.8162" />

		</linearGradient>

		<path
   id="path4095"
   d="m 179.7,90.2 c 2,0.5 4,1 6,1.6 v -1.5 c -0.5,-0.2 -1.1,-0.3 -1.6,-0.4 -1.5,-0.4 -2.9,-0.6 -4.4,-0.9 -1.3,-0.2 -2.5,-0.7 -3.9,-0.8 -0.2,0 -0.4,0 -0.6,0.1 -0.2,0.1 -0.3,0.3 -0.3,0.5 0,0.2 0.2,0.3 0.4,0.3 1.4,0.5 2.9,0.7 4.4,1.1 z"
   class="st45"
   inkscape:connector-curvature="0"
   style="fill:url(#SVGID_46_)" />

		<linearGradient
   y2="208.3857"
   x2="161.16499"
   y1="10.0826"
   x1="161.16499"
   gradientUnits="userSpaceOnUse"
   id="SVGID_47_">
			<stop
   id="stop4097"
   style="stop-color:#00E6CF"
   offset="5.405406e-03" />

			<stop
   id="stop4099"
   style="stop-color:#F07400"
   offset="0.8162" />

		</linearGradient>

		<path
   id="path4102"
   d="m 155.3,85.6 c 4.2,0.7 8.4,1.4 12.6,2.1 1.1,0.2 2.2,0.4 3.3,0.5 0.8,0.1 1.9,0.5 2.7,0.3 1.4,-0.4 -0.1,-1.1 -0.8,-1.4 -0.9,-0.3 -1.9,-0.4 -2.8,-0.6 -2.2,-0.4 -4.3,-0.8 -6.5,-1.2 -4.3,-0.8 -8.6,-1.5 -12.9,-2.2 -0.8,-0.1 -2.2,-0.2 -2.9,0.3 -0.1,0 -0.1,0.1 -0.2,0.2 0,0.1 0,0.3 0.1,0.4 0.4,0.4 1,0.3 1.5,0.4 0.6,0.1 1.2,0.4 1.8,0.5 1.4,0.5 2.8,0.5 4.1,0.7 z"
   class="st46"
   inkscape:connector-curvature="0"
   style="fill:url(#SVGID_47_)" />

		<linearGradient
   y2="208.3857"
   x2="179.6442"
   y1="10.0826"
   x1="179.6442"
   gradientUnits="userSpaceOnUse"
   id="SVGID_48_">
			<stop
   id="stop4104"
   style="stop-color:#00E6CF"
   offset="5.405406e-03" />

			<stop
   id="stop4106"
   style="stop-color:#F07400"
   offset="0.8162" />

		</linearGradient>

		<path
   id="path4109"
   d="m 174.7,95 c -0.1,0 -0.2,0 -0.3,0 -0.3,0 -0.8,0.1 -0.8,0.4 0,0.3 0.3,0.5 0.6,0.6 3.8,1.2 7.3,2.9 11.4,3 v -0.3 c -1.8,-1.4 -3.9,-2 -6.1,-2.6 -1,-0.3 -2.1,-0.5 -3.1,-0.8 -0.5,-0.1 -1.1,-0.2 -1.7,-0.3 z"
   class="st47"
   inkscape:connector-curvature="0"
   style="fill:url(#SVGID_48_)" />

		<linearGradient
   y2="208.3857"
   x2="167.25101"
   y1="10.0826"
   x1="167.25101"
   gradientUnits="userSpaceOnUse"
   id="SVGID_49_">
			<stop
   id="stop4111"
   style="stop-color:#00E6CF"
   offset="5.405406e-03" />

			<stop
   id="stop4113"
   style="stop-color:#F07400"
   offset="0.8162" />

		</linearGradient>

		<path
   id="path4116"
   d="m 167.7,161 c 0.7,-1 1.5,-1.8 2.2,-2.8 0.4,-0.6 1.2,-1.3 1.4,-2 0,-0.1 0,-0.2 0,-0.3 -0.1,-0.2 -0.4,-0.2 -0.6,-0.1 -1.9,0.4 -3.1,1.9 -4.2,3.4 -1,1.2 -1.8,2.6 -2.4,4.1 -0.5,1.4 -0.8,2.8 -0.8,4.3 0,0.5 0.7,4.8 0.8,4.8 l 1.3,-0.8 c -0.9,-3.3 -0.2,-7.1 2.3,-10.6 z"
   class="st48"
   inkscape:connector-curvature="0"
   style="fill:url(#SVGID_49_)" />

		<linearGradient
   y2="208.3857"
   x2="178.5397"
   y1="10.0826"
   x1="178.5397"
   gradientUnits="userSpaceOnUse"
   id="SVGID_50_">
			<stop
   id="stop4118"
   style="stop-color:#00E6CF"
   offset="5.405406e-03" />

			<stop
   id="stop4120"
   style="stop-color:#F07400"
   offset="0.8162" />

		</linearGradient>

		<path
   id="path4123"
   d="m 172.1,97.9 c -0.2,0.1 -0.6,0.2 -0.7,0.4 -0.1,0.2 0.1,0.6 0.3,0.7 1.7,0.6 3.3,1.3 5.1,1.8 3,0.8 6,1.6 8.8,2.7 V 102 c -4.2,-1.6 -8.5,-2.7 -12.7,-4 -0.3,-0.1 -0.6,-0.2 -0.8,-0.1 z"
   class="st49"
   inkscape:connector-curvature="0"
   style="fill:url(#SVGID_50_)" />

		<linearGradient
   y2="208.3857"
   x2="172.0882"
   y1="10.0826"
   x1="172.0882"
   gradientUnits="userSpaceOnUse"
   id="SVGID_51_">
			<stop
   id="stop4125"
   style="stop-color:#00E6CF"
   offset="5.405406e-03" />

			<stop
   id="stop4127"
   style="stop-color:#F07400"
   offset="0.8162" />

		</linearGradient>

		<path
   id="path4130"
   d="m 172.3,164.2 c -0.4,-0.9 -1.3,-0.5 -1.5,0.2 -0.2,0.6 0,1.3 0.1,1.9 0.1,0.6 0.1,1.4 0.3,2 l 2.5,-1.4 c -0.6,-0.9 -1,-1.8 -1.4,-2.7 z"
   class="st50"
   inkscape:connector-curvature="0"
   style="fill:url(#SVGID_51_)" />

		<linearGradient
   y2="208.3857"
   x2="162.0645"
   y1="10.0826"
   x1="162.0645"
   gradientUnits="userSpaceOnUse"
   id="SVGID_52_">
			<stop
   id="stop4132"
   style="stop-color:#00E6CF"
   offset="5.405406e-03" />

			<stop
   id="stop4134"
   style="stop-color:#F07400"
   offset="0.8162" />

		</linearGradient>

		<path
   id="path4137"
   d="m 162.6,172.5 c 0,-0.2 -0.4,-0.4 -0.6,-0.4 -0.2,0 -0.5,0.3 -0.6,0.5 -0.1,0.3 -0.1,0.8 -0.1,1.3 l 1.4,-0.8 c 0,-0.2 0,-0.4 -0.1,-0.6 z"
   class="st51"
   inkscape:connector-curvature="0"
   style="fill:url(#SVGID_52_)" />

		<linearGradient
   y2="208.3857"
   x2="174.93221"
   y1="10.0826"
   x1="174.93221"
   gradientUnits="userSpaceOnUse"
   id="SVGID_53_">
			<stop
   id="stop4139"
   style="stop-color:#00E6CF"
   offset="5.405406e-03" />

			<stop
   id="stop4141"
   style="stop-color:#F07400"
   offset="0.8162" />

		</linearGradient>

		<path
   id="path4144"
   d="m 173.4,161.6 c -0.5,0.6 0.2,2.4 0.4,3 0.2,0.6 0.4,1.1 0.7,1.7 l 2,-1.1 c -0.3,-0.5 -0.5,-1 -0.7,-1.5 -0.3,-0.7 -0.8,-1.8 -1.6,-2.1 -0.3,-0.2 -0.6,-0.2 -0.8,0 z"
   class="st52"
   inkscape:connector-curvature="0"
   style="fill:url(#SVGID_53_)" />

		<linearGradient
   y2="208.3857"
   x2="130.93449"
   y1="10.0826"
   x1="130.93449"
   gradientUnits="userSpaceOnUse"
   id="SVGID_54_">
			<stop
   id="stop4146"
   style="stop-color:#00E6CF"
   offset="5.405406e-03" />

			<stop
   id="stop4148"
   style="stop-color:#F07400"
   offset="0.8162" />

		</linearGradient>

		<path
   id="path4151"
   d="m 136.5,139.3 c -0.1,0.1 -0.3,0.1 -0.4,0.2 -0.7,0.3 -1.4,0.7 -2,1 -1.6,0.8 -3.1,1.7 -4.6,2.7 -3,1.9 -5.8,4.1 -8.7,6.1 -1.8,1.2 -3.5,2.7 -4.9,4.5 -1.5,1.9 -2.7,4.1 -5,5.4 -1.7,0.9 -1.9,2.3 -1.1,4.2 2.1,4.8 3.8,9.7 5.6,14.6 0.1,0.3 0.5,1.3 0.3,1.6 -0.4,0.6 -0.6,0 -0.8,-0.3 -0.4,-0.6 -0.7,-1.2 -1.1,-1.8 -0.7,-1.3 -1.2,-2.7 -1.7,-4.1 -1,-3.3 -2.7,-6.4 -4.3,-9.4 -0.8,-1.6 -2.3,-2.4 -4,-3 -1.2,-0.4 -3.6,-2.1 -4.8,-1.5 -0.1,0.1 -0.2,0.2 -0.2,0.3 0,0.1 0.1,0.2 0.1,0.3 1.8,2.2 4.7,3.3 6.5,5.7 1.7,2.2 2.8,4.8 4,7.2 2.6,5.3 5.4,10.6 8.2,15.9 0.6,1.2 1.2,2.3 1.9,3.5 0.5,0.8 1.1,2.1 2.1,2.3 0.2,0 0.3,0 0.5,-0.1 0.1,-0.1 0.2,-0.3 0.2,-0.5 0,-0.7 -0.5,-1.2 -0.7,-1.8 -1.6,-3.8 -3.2,-7.6 -3.8,-11.8 -0.3,-2.2 -1,-4.4 -1.7,-6.6 -0.6,-1.8 -1,-4.2 -2.2,-5.7 -1,-1.3 -1.3,-3 -1.7,-4.6 -0.2,-0.8 -0.8,-2.2 -0.7,-3 0,-0.3 0.2,-0.5 0.5,-0.6 0.3,-0.1 0.6,0.1 0.8,0.3 0.6,0.7 0.4,2.1 0.5,3 0.1,0.5 -0.2,1.7 0.4,2 0.3,0.2 0.7,0.1 1,-0.1 0.1,-0.1 0.3,-0.1 0.3,-0.2 0.2,-0.2 0,-0.9 0,-1.2 -1,-4.7 1,-8.1 4.5,-10.9 0.9,-0.7 1.6,-1.5 2.5,-2.1 6.9,-4.5 13.8,-9.2 20.9,-13.4 4.8,-2.8 10,-4.8 15.7,-5.4 1.2,-0.1 2.5,-0.5 3.7,-0.8 0.3,-0.1 0.5,-0.5 0.8,-0.8 -0.3,-0.2 -0.7,-0.5 -0.9,-0.5 -4,0.9 -8.3,0.7 -12.2,2.5 -3.3,1.4 -6.9,2 -10.3,3.2 -1.4,0.5 -2.7,0.7 -4,1.4 -0.4,0.2 -1.3,0.6 -0.4,0.8 0.7,0.2 1.8,-0.4 2.5,-0.5 0.3,-0.1 0.5,-0.1 0.8,0 0.2,0.1 0.2,0.4 0.2,0.6 -0.1,0.2 -0.2,0.4 -0.4,0.6 -0.8,0.4 -1.3,0.6 -1.9,0.8 z"
   class="st53"
   inkscape:connector-curvature="0"
   style="fill:url(#SVGID_54_)" />

		<linearGradient
   y2="208.3857"
   x2="159.5202"
   y1="10.0826"
   x1="159.5202"
   gradientUnits="userSpaceOnUse"
   id="SVGID_55_">
			<stop
   id="stop4153"
   style="stop-color:#00E6CF"
   offset="5.405406e-03" />

			<stop
   id="stop4155"
   style="stop-color:#F07400"
   offset="0.8162" />

		</linearGradient>

		<path
   id="path4158"
   d="m 139.2,185.8 c -1,-3.2 -2,-6.5 -2.8,-9.8 -0.9,-3.6 0.1,-7.1 0.3,-10.7 0.4,-7.6 5,-12.3 10.5,-16.5 1.2,-0.9 2.7,-1.4 4,-2.2 4.7,-2.7 9.5,-5.2 14.8,-6.5 5.7,-1.5 10.8,-0.1 15.4,3.1 2.3,1.6 3.8,4 4.3,6.9 v -5.5 c -1.9,-3.2 -5.2,-4.4 -8.6,-5.5 -5.1,-1.6 -10,-2.4 -15,0.1 -4.7,2.3 -9.4,4.8 -14.1,7.1 -3.7,1.8 -6.9,4.3 -9.2,7.6 -2,2.9 -4.2,6.2 -4.8,9.6 -1.3,7.5 -0.5,14.9 2.3,22.1 0.3,0.7 0.7,1.4 1,2.2 l 2.1,-1.2 c 0,-0.3 -0.1,-0.6 -0.2,-0.8 z"
   class="st54"
   inkscape:connector-curvature="0"
   style="fill:url(#SVGID_55_)" />

		<linearGradient
   y2="208.3857"
   x2="185.0282"
   y1="10.0826"
   x1="185.0282"
   gradientUnits="userSpaceOnUse"
   id="SVGID_56_">
			<stop
   id="stop4160"
   style="stop-color:#00E6CF"
   offset="5.405406e-03" />

			<stop
   id="stop4162"
   style="stop-color:#F07400"
   offset="0.8162" />

		</linearGradient>

		<path
   id="path4165"
   d="m 185.6,63.1 c 0,0 0,0 0,0 l 0.1,-1.8 c -0.1,0 -0.1,0 -0.2,0 l -1.1,0.6 c 0.4,0.5 0.7,1.1 1.2,1.2 z"
   class="st55"
   inkscape:connector-curvature="0"
   style="fill:url(#SVGID_56_)" />

		<linearGradient
   y2="208.3857"
   x2="179.67889"
   y1="10.0826"
   x1="179.67889"
   gradientUnits="userSpaceOnUse"
   id="SVGID_57_">
			<stop
   id="stop4167"
   style="stop-color:#00E6CF"
   offset="5.405406e-03" />

			<stop
   id="stop4169"
   style="stop-color:#F07400"
   offset="0.8162" />

		</linearGradient>

		<path
   id="path4172"
   d="m 175.9,110.3 c -0.2,-0.1 -0.5,0.1 -0.8,0.1 0.1,0.2 0.2,0.5 0.5,0.9 2.5,0.8 5.1,1.6 7.8,2.4 0.2,0.1 0.6,-0.3 0.9,-0.4 -0.3,-0.3 -0.5,-0.7 -0.8,-0.8 -2.5,-0.8 -5.1,-1.5 -7.6,-2.2 z"
   class="st56"
   inkscape:connector-curvature="0"
   style="fill:url(#SVGID_57_)" />

		<linearGradient
   y2="208.3857"
   x2="180.06261"
   y1="10.0826"
   x1="180.06261"
   gradientUnits="userSpaceOnUse"
   id="SVGID_58_">
			<stop
   id="stop4174"
   style="stop-color:#00E6CF"
   offset="5.405406e-03" />

			<stop
   id="stop4176"
   style="stop-color:#F07400"
   offset="0.8162" />

		</linearGradient>

		<path
   id="path4179"
   d="m 185.7,110.2 c -3.1,-1.4 -6.3,-2.5 -9.7,-3.4 -0.5,-0.1 -1,0.1 -1.5,0.2 0.4,0.3 0.7,0.9 1.1,1 3.5,0.8 6.9,2.2 10,3.8 v -1.6 z"
   class="st57"
   inkscape:connector-curvature="0"
   style="fill:url(#SVGID_58_)" />

		<linearGradient
   y2="208.3857"
   x2="184.41071"
   y1="10.0826"
   x1="184.41071"
   gradientUnits="userSpaceOnUse"
   id="SVGID_59_">
			<stop
   id="stop4181"
   style="stop-color:#00E6CF"
   offset="5.405406e-03" />

			<stop
   id="stop4183"
   style="stop-color:#F07400"
   offset="0.8162" />

		</linearGradient>

		<path
   id="path4186"
   d="m 183.7,120.1 c 0.6,0.4 1.3,0.7 1.9,1 v -1.7 c -0.4,-0.2 -0.9,-0.3 -1.3,-0.5 -0.3,-0.1 -0.8,0.2 -1.2,0.3 0.2,0.4 0.4,0.8 0.6,0.9 z"
   class="st58"
   inkscape:connector-curvature="0"
   style="fill:url(#SVGID_59_)" />

		<linearGradient
   y2="208.3857"
   x2="144.4904"
   y1="10.0826"
   x1="144.4904"
   gradientUnits="userSpaceOnUse"
   id="SVGID_60_">
			<stop
   id="stop4188"
   style="stop-color:#00E6CF"
   offset="5.405406e-03" />

			<stop
   id="stop4190"
   style="stop-color:#F07400"
   offset="0.8162" />

		</linearGradient>

		<path
   id="path4193"
   d="m 144.4,124.7 v 0 c 0,0 0,0 0,0 0.1,0 0.1,0 0.2,0 -0.1,-0.1 -0.1,0 -0.2,0 z"
   class="st59"
   inkscape:connector-curvature="0"
   style="fill:url(#SVGID_60_)" />

		<linearGradient
   y2="208.3857"
   x2="129.89259"
   y1="10.0826"
   x1="129.89259"
   gradientUnits="userSpaceOnUse"
   id="SVGID_61_">
			<stop
   id="stop4195"
   style="stop-color:#00E6CF"
   offset="5.405406e-03" />

			<stop
   id="stop4197"
   style="stop-color:#F07400"
   offset="0.8162" />

		</linearGradient>

		<path
   id="path4200"
   d="m 158.3,121.4 c -1.4,-0.2 -2.9,-0.6 -4.3,-0.6 -5.6,0.3 -10.8,2.2 -16.1,3.9 -7.4,2.3 -14.9,4.3 -22.3,6.5 -1.3,0.4 -2.6,0.8 -4,1.2 -1.7,0.5 -3.4,1.1 -5.1,1.6 -0.8,0.3 -1.7,0.7 -2.6,0.8 -0.6,0.1 -1.1,0 -1.6,0.2 -0.4,0.2 -0.7,0.5 -0.7,0.9 -0.1,1.5 3.6,0.1 4.4,0 1.8,-0.4 3.5,-0.8 5.3,-1.4 5.5,-1.7 10.9,-3.9 16.5,-5.4 4.5,-1.2 9.3,-1.4 13.4,-4 0.9,-0.6 2.2,-0.4 3.4,-0.6 2.9,-1.8 6.1,-2.3 9.4,-2.3 1.3,0.1 3.1,0.9 4.3,-0.8 z"
   class="st60"
   inkscape:connector-curvature="0"
   style="fill:url(#SVGID_61_)" />

		<linearGradient
   y2="208.3857"
   x2="171.1924"
   y1="10.0826"
   x1="171.1924"
   gradientUnits="userSpaceOnUse"
   id="SVGID_62_">
			<stop
   id="stop4202"
   style="stop-color:#00E6CF"
   offset="5.405406e-03" />

			<stop
   id="stop4204"
   style="stop-color:#F07400"
   offset="0.8162" />

		</linearGradient>

		<path
   id="path4207"
   d="m 176.9,126.1 c 3.1,0.8 6.1,1.8 8.8,3.2 v -1.9 c -7.3,-3.2 -14.9,-4.4 -22.8,-3.6 -2.1,0.2 -4.2,-0.4 -6,1.1 -0.1,0.1 -0.1,0.1 -0.1,0.2 0,0.1 0.2,0.2 0.3,0.2 0.6,0.1 1.3,0.1 1.9,0.2 0.5,0 1,0.2 1.5,0.2 5.4,0.2 10.8,-1.2 16.4,0.4 z"
   class="st61"
   inkscape:connector-curvature="0"
   style="fill:url(#SVGID_62_)" />

		<linearGradient
   y2="208.3857"
   x2="140.83549"
   y1="10.0826"
   x1="140.83549"
   gradientUnits="userSpaceOnUse"
   id="SVGID_63_">
			<stop
   id="stop4209"
   style="stop-color:#00E6CF"
   offset="5.405406e-03" />

			<stop
   id="stop4211"
   style="stop-color:#F07400"
   offset="0.8162" />

		</linearGradient>

		<path
   id="path4214"
   d="m 140.7,128.3 c 0.1,0 0.1,0 0.2,0 v 0 c 0,-0.1 -0.1,-0.1 -0.2,0 z"
   class="st62"
   inkscape:connector-curvature="0"
   style="fill:url(#SVGID_63_)" />

		<linearGradient
   y2="208.3857"
   x2="135.50169"
   y1="10.0826"
   x1="135.50169"
   gradientUnits="userSpaceOnUse"
   id="SVGID_64_">
			<stop
   id="stop4216"
   style="stop-color:#00E6CF"
   offset="5.405406e-03" />

			<stop
   id="stop4218"
   style="stop-color:#F07400"
   offset="0.8162" />

		</linearGradient>

		<path
   id="path4221"
   d="m 165.8,117.9 c -3.6,-0.3 -7.2,-0.5 -10.8,-0.8 -0.8,-0.1 -1.9,0 -2.2,-0.5 -0.9,-1.4 -2.2,-1.1 -3.4,-0.9 -4,0.6 -8,1.2 -11.9,2 -8,1.7 -16.1,3.5 -24,5.4 -3.2,0.8 -6.6,1.4 -9.5,2.8 -0.3,0.1 -0.6,0.4 -0.5,0.7 0.1,0.3 0.4,0.4 0.7,0.4 4.3,0.4 7.5,-1.2 11.6,-2.2 6.2,-1.5 12.5,-2.8 18.7,-4.2 2.6,-0.6 5,-1.6 7.6,-2.2 2.3,-0.5 4.6,-0.8 7,-1.1 0.3,0 0.7,0.2 1.1,0.4 -0.4,0.2 -0.7,0.6 -1.1,0.7 -4,0.4 -7.8,1.6 -11.6,2.9 -2.1,0.7 -4.3,1.1 -6.4,1.7 -6.3,1.7 -12.6,3.4 -18.9,5.2 -1.6,0.5 -3.1,1 -4.6,1.6 -0.7,0.3 -3.6,0.8 -3.8,1.6 -0.1,0.5 0.5,0.9 1,0.9 0.9,0.1 1.4,-0.5 2.2,-0.7 6.8,-1.9 13.7,-3.7 20.5,-5.6 4.4,-1.2 8.9,-2.4 13.2,-3.8 7.1,-2.2 14.3,-3.5 21.7,-3.3 0.9,0 1.9,0.2 2.8,0.4 0.6,0.1 1.8,0.6 2.3,0.2 0.2,-0.2 0.3,-0.5 0.2,-0.7 -0.3,-0.7 -1.3,-0.9 -1.9,-0.9 z"
   class="st63"
   inkscape:connector-curvature="0"
   style="fill:url(#SVGID_64_)" />

		<linearGradient
   y2="208.3857"
   x2="172.5421"
   y1="10.0826"
   x1="172.5421"
   gradientUnits="userSpaceOnUse"
   id="SVGID_65_">
			<stop
   id="stop4223"
   style="stop-color:#00E6CF"
   offset="5.405406e-03" />

			<stop
   id="stop4225"
   style="stop-color:#F07400"
   offset="0.8162" />

		</linearGradient>

		<path
   id="path4228"
   d="m 167.4,121.8 c 4.6,-0.4 8.9,0.5 13.2,1.5 1.8,0.4 3.5,1 5.1,1.8 v -1.5 c -1.9,-0.9 -4,-1.7 -6,-2.2 -2.3,-0.6 -4.6,-1 -6.9,-1.2 -1.2,-0.1 -2.4,-0.1 -3.6,-0.2 -1.1,-0.1 -2.1,0.3 -3.2,0.5 -2,0.3 -3.9,0.5 -5.9,0.6 -0.2,0 -0.4,0 -0.6,0.1 -0.1,0 -0.1,0.1 -0.1,0.1 0,0.1 0.1,0.2 0.2,0.2 1.2,0.2 2.3,0.2 3.5,0.3 1.5,0.1 2.9,0.2 4.3,0 z"
   class="st64"
   inkscape:connector-curvature="0"
   style="fill:url(#SVGID_65_)" />

		<linearGradient
   y2="208.3857"
   x2="126.6435"
   y1="10.0826"
   x1="126.6435"
   gradientUnits="userSpaceOnUse"
   id="SVGID_66_">
			<stop
   id="stop4230"
   style="stop-color:#00E6CF"
   offset="5.405406e-03" />

			<stop
   id="stop4232"
   style="stop-color:#F07400"
   offset="0.8162" />

		</linearGradient>

		<path
   id="path4235"
   d="m 126.6,133.4 v 0 c 0.1,0 0.1,0 0.2,0 v 0 c -0.1,0 -0.2,0 -0.2,0 z"
   class="st65"
   inkscape:connector-curvature="0"
   style="fill:url(#SVGID_66_)" />

		<linearGradient
   y2="208.3857"
   x2="127.8442"
   y1="10.0826"
   x1="127.8442"
   gradientUnits="userSpaceOnUse"
   id="SVGID_67_">
			<stop
   id="stop4237"
   style="stop-color:#00E6CF"
   offset="5.405406e-03" />

			<stop
   id="stop4239"
   style="stop-color:#F07400"
   offset="0.8162" />

		</linearGradient>

		<path
   id="path4242"
   d="m 127.9,133.2 c -0.1,0 -0.1,0 -0.2,0 v 0 c 0.1,0 0.2,0 0.2,0 z"
   class="st66"
   inkscape:connector-curvature="0"
   style="fill:url(#SVGID_67_)" />

		<linearGradient
   y2="208.3857"
   x2="126.3259"
   y1="10.0826"
   x1="126.3259"
   gradientUnits="userSpaceOnUse"
   id="SVGID_68_">
			<stop
   id="stop4244"
   style="stop-color:#00E6CF"
   offset="5.405406e-03" />

			<stop
   id="stop4246"
   style="stop-color:#F07400"
   offset="0.8162" />

		</linearGradient>

		<path
   id="path4249"
   d="m 108.3,139.3 c -2.3,-1.1 -5.9,-0.4 -7.8,1.2 -0.2,0.2 -0.4,0.3 -0.4,0.6 0,1.2 5.4,0.2 6.1,0.2 2.6,-0.1 5.3,-0.2 7.8,-1.3 4.9,-2.1 10.1,-3.7 15.2,-5.5 1.1,-0.2 2.5,-0.1 3.1,-0.7 2.6,-2.5 6,-2.7 9.2,-3.4 2.2,-0.5 4.5,-1.1 6.7,-1.6 1.5,-0.3 3.2,-0.4 4.1,-1.9 0,-0.1 0.1,-0.1 0.1,-0.2 0,-0.2 -0.3,-0.2 -0.4,-0.1 -3.3,0.8 -6.8,1.1 -10.1,1.6 v 0 c -0.4,0.1 -0.7,0.1 -1,0.2 -3.3,0.7 -6.7,1.4 -10,2.1 -3.6,0.7 -7.1,1.4 -10.6,2.6 -1.7,0.6 -3.1,1.4 -4.7,2.1 -1.6,0.7 -3.3,1.1 -5,1.6 -0.3,0.1 -0.5,0.2 -0.7,0.4 -0.1,0.1 -0.1,0.2 0,0.3 0,0.1 0.1,0.1 0.2,0.1 0.8,0 1.4,-0.4 2.1,-0.8 1.2,-0.6 2.4,-0.5 3.7,-0.9 1.6,-0.4 3.3,-0.9 4.9,-1.2 2,-0.4 3.9,-0.8 5.9,-1.2 0,0 0,0 0,0 0.3,-0.1 0.7,-0.1 1,-0.2 0.8,-0.3 1.5,-0.6 2.3,-1 0.2,-0.1 0.5,-0.1 0.5,0.1 0,0.1 0,0.2 -0.1,0.3 -0.3,0.4 -0.6,0.7 -1,1 -0.1,0.1 -0.3,0.2 -0.4,0.2 -0.8,0.1 -1.4,-1 -2.3,-0.4 -5.2,3.5 -11.2,4.5 -17.2,5.9 -0.3,0 -0.8,0 -1.2,-0.1 z m 22.9,-7.2 c -0.1,0.1 -0.1,0.2 -0.2,0.2 -0.1,0 -0.1,0 -0.2,0 0.2,-0.1 0.3,-0.2 0.4,-0.2 z"
   class="st67"
   inkscape:connector-curvature="0"
   style="fill:url(#SVGID_68_)" />

		<linearGradient
   y2="208.3857"
   x2="142.2334"
   y1="10.0826"
   x1="142.2334"
   gradientUnits="userSpaceOnUse"
   id="SVGID_69_">
			<stop
   id="stop4251"
   style="stop-color:#00E6CF"
   offset="5.405406e-03" />

			<stop
   id="stop4253"
   style="stop-color:#F07400"
   offset="0.8162" />

		</linearGradient>

		<path
   id="path4256"
   d="m 114.7,143.7 c 5.6,-1.7 10.9,-4.1 16.4,-6.3 2.3,-0.9 4.5,-2.1 6.9,-2.8 3,-1 6.2,-1.7 9.2,-2.7 6.1,-2 12,-4.4 18.6,-2.4 0.5,0.1 1.1,-0.2 1.6,-0.2 2.7,0 5.5,0 8.2,0.2 3.9,0.4 7.2,1.8 10.1,3.7 v -1.7 c -2.8,-1.8 -6,-3 -9.5,-3.5 -8.6,-1.4 -17.4,-1.9 -25.9,1.3 -4.7,1.7 -9.7,2.4 -14.4,4.1 -5.2,1.8 -10.2,4.4 -15.4,6.2 -5.1,1.8 -10.3,3.3 -15.7,4.3 -1.8,0.3 -4.4,-0.1 -5.7,1.5 -0.1,0.2 -0.3,0.4 -0.2,0.6 0,0.4 0.5,0.6 0.9,0.7 2.1,0.5 4.5,-0.5 6.6,-0.9 2.7,-0.6 5.5,-1.2 8.3,-2.1 z"
   class="st68"
   inkscape:connector-curvature="0"
   style="fill:url(#SVGID_69_)" />

		<linearGradient
   y2="208.3857"
   x2="111.6858"
   y1="10.0826"
   x1="111.6858"
   gradientUnits="userSpaceOnUse"
   id="SVGID_70_">
			<stop
   id="stop4258"
   style="stop-color:#00E6CF"
   offset="5.405406e-03" />

			<stop
   id="stop4260"
   style="stop-color:#F07400"
   offset="0.8162" />

		</linearGradient>

		<path
   id="path4263"
   d="m 107.5,154.7 c 1.4,0 3.3,-1.1 4.5,-1.6 1.4,-0.7 2.8,-1.4 4.2,-2.2 2.7,-1.6 5.5,-3.3 7.9,-5.2 0.1,-0.1 0.3,-0.3 0.3,-0.4 0,-0.2 -0.4,-0.3 -0.6,-0.2 -1.3,0.2 -2.5,1.1 -3.6,1.7 -1.3,0.7 -2.5,1.4 -3.8,2.1 -2.4,1.3 -5,2.6 -7.6,3.4 -1.3,0.4 -2.7,0.7 -4.1,0.9 -0.7,0.1 -1.4,0.1 -2,0.2 -1,0 -2.2,0 -3.2,0.4 -0.3,0.1 -0.6,0.4 -0.5,0.7 0.1,0.3 0.4,0.4 0.7,0.4 1.4,0.3 3,0.2 4.5,0.2 1.1,0 2.2,-0.4 3.3,-0.4 z"
   class="st69"
   inkscape:connector-curvature="0"
   style="fill:url(#SVGID_70_)" />

		<linearGradient
   y2="208.3857"
   x2="126.6597"
   y1="10.0826"
   x1="126.6597"
   gradientUnits="userSpaceOnUse"
   id="SVGID_71_">
			<stop
   id="stop4265"
   style="stop-color:#00E6CF"
   offset="5.405406e-03" />

			<stop
   id="stop4267"
   style="stop-color:#F07400"
   offset="0.8162" />

		</linearGradient>

		<polygon
   id="polygon4270"
   points="126.8,133.4 126.6,133.4 "
   class="st70"
   style="fill:url(#SVGID_71_)" />

		<linearGradient
   y2="208.3857"
   x2="142.0423"
   y1="10.0826"
   x1="142.0423"
   gradientUnits="userSpaceOnUse"
   id="SVGID_72_">
			<stop
   id="stop4272"
   style="stop-color:#00E6CF"
   offset="5.405406e-03" />

			<stop
   id="stop4274"
   style="stop-color:#F07400"
   offset="0.8162" />

		</linearGradient>

		<polygon
   id="polygon4277"
   points="142.1,128 141.9,128.1 "
   class="st71"
   style="fill:url(#SVGID_72_)" />

		<linearGradient
   y2="208.3857"
   x2="142.0564"
   y1="10.0826"
   x1="142.0564"
   gradientUnits="userSpaceOnUse"
   id="SVGID_73_">
			<stop
   id="stop4279"
   style="stop-color:#00E6CF"
   offset="5.405406e-03" />

			<stop
   id="stop4281"
   style="stop-color:#F07400"
   offset="0.8162" />

		</linearGradient>

		<path
   id="path4284"
   d="m 142.1,128 c -0.1,0 -0.1,0 -0.2,0 v 0 c 0.1,0.1 0.2,0.1 0.2,0 z"
   class="st72"
   inkscape:connector-curvature="0"
   style="fill:url(#SVGID_73_)" />

		<linearGradient
   y2="208.3857"
   x2="147.81799"
   y1="10.0826"
   x1="147.81799"
   gradientUnits="userSpaceOnUse"
   id="SVGID_74_">
			<stop
   id="stop4286"
   style="stop-color:#00E6CF"
   offset="5.405406e-03" />

			<stop
   id="stop4288"
   style="stop-color:#F07400"
   offset="0.8162" />

		</linearGradient>

		<path
   id="path4291"
   d="m 145,126.4 c 1.2,-0.7 2.2,-0.9 3.6,-0.9 1.1,0 2.4,0.5 3.6,0.3 0.7,-0.2 4,-1 3.2,-1.9 -0.8,-0.8 -4.1,-0.3 -5,-0.1 -0.8,0.2 -1.6,0.4 -2.3,0.9 -1,0.6 -1.2,0.6 -2.5,0.5 -0.5,0 -1,-0.1 -1.5,-0.1 -1.2,0 -2.4,0.5 -3.4,1.2 -0.2,0.2 -0.4,0.4 -0.4,0.6 0,0.3 0.4,0.5 0.7,0.6 0.5,0.1 1,0 1.5,-0.2 0.8,0 1.6,-0.4 2.5,-0.9 -0.1,0.1 0,0.1 0,0 z"
   class="st73"
   inkscape:connector-curvature="0"
   style="fill:url(#SVGID_74_)" />

		<linearGradient
   y2="208.3857"
   x2="170.0352"
   y1="10.0826"
   x1="170.0352"
   gradientUnits="userSpaceOnUse"
   id="SVGID_75_">
			<stop
   id="stop4293"
   style="stop-color:#00E6CF"
   offset="5.405406e-03" />

			<stop
   id="stop4295"
   style="stop-color:#F07400"
   offset="0.8162" />

		</linearGradient>

		<path
   id="path4298"
   d="m 177.1,76.6 c 0.2,0 0.4,-0.2 0.6,-0.3 -1.2,-1.2 -2.8,-1.3 -4.4,-1.5 -3.1,-0.3 -6.1,-0.8 -9.1,-1.2 l -1.9,1.1 c 5,0.6 9.9,1.3 14.8,1.9 z"
   class="st74"
   inkscape:connector-curvature="0"
   style="fill:url(#SVGID_75_)" />

		<linearGradient
   y2="208.3857"
   x2="179.9426"
   y1="10.0826"
   x1="179.9426"
   gradientUnits="userSpaceOnUse"
   id="SVGID_76_">
			<stop
   id="stop4300"
   style="stop-color:#00E6CF"
   offset="5.405406e-03" />

			<stop
   id="stop4302"
   style="stop-color:#F07400"
   offset="0.8162" />

		</linearGradient>

		<path
   id="path4305"
   d="m 180.2,118.5 c 0,0 -0.1,-0.1 -0.1,-0.1 -0.2,0 -0.3,0 -0.5,0 0.2,0.1 0.4,0.1 0.6,0.1 0,0.1 0,0.1 0,0 z"
   class="st75"
   inkscape:connector-curvature="0"
   style="fill:url(#SVGID_76_)" />

		<linearGradient
   y2="208.3857"
   x2="150.8792"
   y1="10.0826"
   x1="150.8792"
   gradientUnits="userSpaceOnUse"
   id="SVGID_77_">
			<stop
   id="stop4307"
   style="stop-color:#00E6CF"
   offset="5.405406e-03" />

			<stop
   id="stop4309"
   style="stop-color:#F07400"
   offset="0.8162" />

		</linearGradient>

		<path
   id="path4312"
   d="m 171,131.1 c -2.9,0 -5.8,0.4 -8.6,1 -2.4,0.5 -4.8,1.2 -7.1,1.9 -0.6,0.2 -1.2,0.4 -1.8,0.5 -0.4,0.1 -0.8,0 -1.3,0.1 -1.1,0.3 -2.1,0.9 -3.1,1.5 -0.6,0.3 -1.1,0.6 -1.7,0.7 -0.7,0.1 -1.3,0.4 -2,0.7 -4.1,1.7 -7.5,4.5 -11.2,6.9 -2.2,1.4 -4.2,3.6 -6.5,4.3 -5.3,1.6 -7.6,6.1 -10.8,9.8 -0.2,0.3 -0.4,0.8 -0.4,1.2 0,3.8 -0.9,7.8 0.1,11.2 2.2,7.6 3.6,15.4 6.7,22.7 0.3,0.6 0.6,1.2 0.9,1.7 l 1.7,-1 c -0.3,-0.7 -0.6,-1.4 -0.8,-2.1 -1.1,-2.9 -2.3,-5.9 -3,-9 -0.2,-0.8 -0.3,-1.6 -0.5,-2.4 -0.1,-0.6 0.1,-1.1 0,-1.7 -0.1,-1.3 -1.1,-2.4 -1.5,-3.6 -0.6,-1.6 -1,-3.2 -1.3,-4.9 -0.6,-3.3 -0.6,-6.7 0,-10 0.2,-1.2 0.6,-2.5 1.3,-3.4 1.4,-2 3.1,-3.9 4.8,-5.8 0.3,-0.3 0.9,-0.4 1.3,-0.6 -0.2,0.5 -0.4,0.9 -0.7,1.4 -0.3,0.5 -0.7,0.9 -1.1,1.3 -4.7,5.4 -5.3,11.6 -3.7,18.3 0.5,2.1 0.8,4.3 1.1,6.5 1.2,3.6 2.4,7.3 3.7,10.9 0.5,1.4 1.2,2.8 1.8,4.2 l 1.6,-0.9 c -1.4,-3.3 -2.5,-6.7 -3.2,-10.3 -1,-5 -2.2,-10 -3,-15.1 -0.3,-2 -0.1,-4.2 0.4,-6.1 1.4,-5.1 4.8,-9.2 8.6,-12.6 3.8,-3.3 8.5,-5.6 12.9,-8.3 0,0 0,0 0.1,0 l -0.2,0.1 c 2.2,-2 4.2,-4.4 7.3,-4.5 0.4,0 0.8,0 1.1,0.2 0.2,0.1 0.3,0.2 0.3,0.4 0,0.2 -0.2,0.4 -0.4,0.5 -1.2,0.6 -2.7,1 -3.9,1.7 -0.6,0.4 -5.2,1.6 -3.9,3 0.5,0.5 1.3,0.2 1.8,0 2.2,-0.9 4.4,-1.6 6.6,-2.4 -2.6,1.5 -5,3.5 -7.8,4.1 -3,0.6 -5.5,1.8 -8,3.2 -7.1,4.2 -12.6,9.7 -13,18.5 -0.1,2.7 0.3,5.5 0.7,8.3 1.1,6.4 2.4,12.8 5,18.7 l 1.9,-1.1 c -0.3,-0.9 -0.5,-1.9 -0.9,-2.8 -2,-5.2 -3.6,-10.5 -4,-16.1 -0.2,-2.6 -1.1,-5 -0.4,-7.8 1.1,-4.5 2.3,-8.8 6.3,-11.6 1.4,-1 2.8,-2.1 4.1,-3.1 0.7,-0.5 1.4,-1.1 2.1,-1.6 0.6,-0.5 1.2,-1 2,-1.2 0.1,0 0.1,0 0.2,0 0.1,0 0.1,0.1 0.1,0.1 0,0 0,0.1 0,0.1 -0.2,0.4 -0.6,0.6 -0.9,0.9 -0.3,0.4 -0.7,0.7 -1,1 -0.8,0.8 -1.6,1.5 -2.5,2.1 -7.9,5.7 -9.3,13.8 -8.2,22.6 0.7,5.7 2.4,11.1 4.8,16.4 l 1.6,-0.9 c -1.9,-4.8 -2.9,-9.8 -3.5,-15 -0.2,-2.2 -1,-4.4 -0.9,-6.6 0.1,-2.3 0.9,-4.6 1.5,-6.9 0.3,-1.1 0.6,-2.2 1.3,-3 2.8,-3.1 5.4,-6.3 8.6,-9 6.9,-5.9 15.1,-9.2 23.6,-12 1,-0.3 2.2,-0.4 3.3,-0.4 4.7,0 9.1,1.3 13.2,3.4 1.3,0.7 2.3,1.5 3.1,2.5 V 140 c -3.2,-3.8 -7.7,-4.5 -12.2,-5.2 -5.2,-0.8 -10.2,0.7 -15.1,2.4 -0.4,0.1 -1.1,0.1 -1.1,0 -0.2,-0.5 -0.3,-1.1 -0.1,-1.5 0.1,-0.3 0.6,-0.6 1,-0.7 0.9,-0.2 1.9,-0.3 2.8,-0.4 3.7,-0.5 7.1,-2.4 11,-1.7 3.1,0.5 6.2,0.9 9.3,1.3 1.4,1.2 2.9,2.5 4.3,3.7 v -2.1 c -1.2,-0.9 -2.7,-1.6 -4.4,-1.9 -3,-2.3 -6.6,-2.8 -10.2,-2.8 z m -16.8,7.8 c 0,0 -0.1,0 -0.1,0 0.1,0 0.2,-0.1 0.3,-0.1 -0.1,0 -0.2,0.1 -0.2,0.1 z"
   class="st76"
   inkscape:connector-curvature="0"
   style="fill:url(#SVGID_77_)" />

		<linearGradient
   y2="208.3857"
   x2="139.66679"
   y1="10.0826"
   x1="139.66679"
   gradientUnits="userSpaceOnUse"
   id="SVGID_78_">
			<stop
   id="stop4314"
   style="stop-color:#00E6CF"
   offset="5.405406e-03" />

			<stop
   id="stop4316"
   style="stop-color:#F07400"
   offset="0.8162" />

		</linearGradient>

		<path
   id="path4319"
   d="m 113,116.4 c 2.1,0 4.3,-0.2 6.3,-0.6 4.9,-0.9 9.7,-2.2 14.7,-3 7.5,-1.3 15,-2.8 22.6,-1.8 1.6,0.2 2.7,-0.4 3.6,-1.6 0.3,-0.4 4.7,0.1 5.3,0.1 0.5,0 1.7,0.3 2.2,0.1 0.6,-0.3 0.5,-0.9 0.1,-1.1 -0.1,0 -0.7,0.1 -0.8,0.1 -0.4,0 -0.9,-0.2 -1.3,-0.3 -1.9,-0.2 -3.7,0.2 -5.5,0.7 -8.9,-0.6 -17.7,0.1 -26.4,1.9 -4.5,1 -9,1.5 -13.5,2.3 -2.7,0.5 -5.8,1 -8.3,2.1 -0.2,0.1 -0.5,0.2 -0.5,0.5 -0.1,0.4 0.5,0.6 1,0.6 0,0 0.2,0 0.5,0 z"
   class="st77"
   inkscape:connector-curvature="0"
   style="fill:url(#SVGID_78_)" />

		<linearGradient
   y2="208.3857"
   x2="144.59"
   y1="10.0826"
   x1="144.59"
   gradientUnits="userSpaceOnUse"
   id="SVGID_79_">
			<stop
   id="stop4321"
   style="stop-color:#00E6CF"
   offset="5.405406e-03" />

			<stop
   id="stop4323"
   style="stop-color:#F07400"
   offset="0.8162" />

		</linearGradient>

		<path
   id="path4326"
   d="m 110.5,120.9 c 10,-0.1 20.3,-3.7 30.1,-5.9 2.6,-0.6 5.3,-1.3 7.8,-1 7.7,1 15.5,1 23,3.5 1.5,0.5 3.1,0.7 4.6,1 1.7,0.3 3.4,0.6 5.1,0.5 0.1,0 0.3,0 0.4,-0.1 0.1,-0.1 0.2,-0.2 0.1,-0.3 -0.1,-0.1 -0.1,-0.1 -0.2,-0.1 -0.7,-0.2 -1.3,-0.1 -2,-0.2 -0.6,-0.1 -1.3,-0.5 -1.9,-0.7 -1.3,-0.5 -2.7,-1 -4,-1.3 -4.6,-1 -9.3,-1.4 -13.8,-2.7 -5,-1.4 -10,-1.5 -14.8,-0.8 -6.3,0.9 -12.6,2.2 -18.9,3.5 -3.2,0.7 -6.3,1.4 -9.5,2 -2.7,0.5 -5.6,0.3 -8.2,1.4 -0.4,0.2 -0.8,0.5 -0.6,0.9 0.1,0.2 0.4,0.2 0.6,0.2 0.7,0.1 1.4,0.1 2.2,0.1 z"
   class="st78"
   inkscape:connector-curvature="0"
   style="fill:url(#SVGID_79_)" />

		<linearGradient
   y2="208.3857"
   x2="172.8111"
   y1="10.0826"
   x1="172.8111"
   gradientUnits="userSpaceOnUse"
   id="SVGID_80_">
			<stop
   id="stop4328"
   style="stop-color:#00E6CF"
   offset="5.405406e-03" />

			<stop
   id="stop4330"
   style="stop-color:#F07400"
   offset="0.8162" />

		</linearGradient>

		<path
   id="path4333"
   d="m 185.7,115.6 c -0.6,-0.1 -1.1,-0.2 -1.7,-0.2 -1,-0.1 -1.9,-0.3 -2.9,-0.5 -4.3,-1 -8.6,-2.2 -12.9,-3.1 -1.3,-0.3 -2.7,-0.4 -4,-0.5 -1.3,-0.1 -2.5,-0.3 -3.7,-0.3 -0.1,0 -0.3,0 -0.4,0.1 -0.1,0.2 0,0.4 0.1,0.5 0.2,0.1 0.4,0.1 0.5,0.1 1.3,0.1 2.4,0.7 3.6,0.9 5.4,1.1 10.9,2 16.3,3.3 1.7,0.4 3.4,0.9 5,1.4 v -1.7 z"
   class="st79"
   inkscape:connector-curvature="0"
   style="fill:url(#SVGID_80_)" />

		<linearGradient
   y2="208.3857"
   x2="155.6503"
   y1="10.0826"
   x1="155.6503"
   gradientUnits="userSpaceOnUse"
   id="SVGID_81_">
			<stop
   id="stop4335"
   style="stop-color:#00E6CF"
   offset="5.405406e-03" />

			<stop
   id="stop4337"
   style="stop-color:#F07400"
   offset="0.8162" />

		</linearGradient>

		<path
   id="path4340"
   d="m 169.8,106.8 c 0.5,0 0.9,-0.1 1.5,-0.2 0.5,-0.1 1,0 1.5,-0.2 0.2,-0.1 0.3,-0.3 0.2,-0.4 0,0 -0.1,0 -0.2,0 -1.2,-0.1 -2.2,-0.2 -3.5,-0.4 -1.2,-0.3 -2.5,-0.5 -3.7,-0.7 -7.5,-0.7 -14.9,0 -22.3,0.5 -0.9,0.1 -1.9,0.1 -2.7,0.4 -0.6,0.2 -2,0.8 -2.3,1.5 0,0.1 0,0.1 0,0.2 0,0.1 0.1,0.1 0.2,0.1 1.4,0.2 3,-0.1 4.4,-0.2 4.9,-0.5 9.9,-0.9 14.8,-1.1 2.5,-0.1 5,-0.1 7.4,0 1.1,0 2.4,-0.1 3.5,0.3 0.5,0.2 0.8,0.2 1.2,0.2 z"
   class="st80"
   inkscape:connector-curvature="0"
   style="fill:url(#SVGID_81_)" />

		<linearGradient
   y2="208.3857"
   x2="126.6839"
   y1="10.0826"
   x1="126.6839"
   gradientUnits="userSpaceOnUse"
   id="SVGID_82_">
			<stop
   id="stop4342"
   style="stop-color:#00E6CF"
   offset="5.405406e-03" />

			<stop
   id="stop4344"
   style="stop-color:#F07400"
   offset="0.8162" />

		</linearGradient>

		<path
   id="path4347"
   d="m 117.5,110.1 c -0.2,0.1 -0.3,0.1 -0.5,0.2 -0.4,0.1 -0.7,0.2 -1,0.5 -0.3,0.2 -0.4,0.7 -0.3,1 2.1,0.1 3.9,-0.3 5.9,-0.7 1.7,-0.3 3.4,-0.5 5.1,-0.8 1.8,-0.3 3.6,-0.6 5.4,-0.9 1.6,-0.3 3.7,-0.3 5.2,-1.1 0.1,-0.1 0.2,-0.1 0.2,-0.2 0.1,-0.2 -0.1,-0.5 -0.3,-0.7 -0.4,-0.2 -1.1,-0.3 -1.5,-0.3 -3.8,0.3 -7.7,0.8 -11.5,1.3 -2.3,0.4 -4.4,1 -6.7,1.7 z"
   class="st81"
   inkscape:connector-curvature="0"
   style="fill:url(#SVGID_82_)" />

		<linearGradient
   y2="208.3857"
   x2="171.3299"
   y1="10.0826"
   x1="171.3299"
   gradientUnits="userSpaceOnUse"
   id="SVGID_83_">
			<stop
   id="stop4349"
   style="stop-color:#00E6CF"
   offset="5.405406e-03" />

			<stop
   id="stop4351"
   style="stop-color:#F07400"
   offset="0.8162" />

		</linearGradient>

		<path
   id="path4354"
   d="m 173.3,110 c -0.3,-0.4 -1.4,-0.7 -1.7,-0.8 -0.4,-0.1 -0.8,-0.2 -1.2,-0.1 -0.2,0 -1,0.5 -1.1,0.5 1,0.3 2.3,1 3.3,1.2 0.3,0 0.6,-0.1 0.7,-0.4 0.1,-0.2 0.1,-0.3 0,-0.4 z"
   class="st82"
   inkscape:connector-curvature="0"
   style="fill:url(#SVGID_83_)" />

		<linearGradient
   y2="208.3857"
   x2="106.8923"
   y1="10.0826"
   x1="106.8923"
   gradientUnits="userSpaceOnUse"
   id="SVGID_84_">
			<stop
   id="stop4356"
   style="stop-color:#00E6CF"
   offset="5.405406e-03" />

			<stop
   id="stop4358"
   style="stop-color:#F07400"
   offset="0.8162" />

		</linearGradient>

		<path
   id="path4361"
   d="m 113.2,201.7 c -0.1,-0.2 -0.3,-0.4 -0.4,-0.5 -2.2,-3.1 -4.3,-6.3 -6.4,-9.4 -1.1,-1.6 -2.2,-3.2 -3.3,-4.8 -0.3,-0.5 -1.3,-2.7 -2.1,-1.9 -0.4,0.3 -0.4,0.9 -0.3,1.3 0.2,1.4 0.5,1.8 1.4,3 1.1,1.5 2.1,2.9 3.2,4.4 2.1,2.9 4.3,5.9 6.4,8.8 z"
   class="st83"
   inkscape:connector-curvature="0"
   style="fill:url(#SVGID_84_)" />

		<linearGradient
   y2="208.3857"
   x2="176.72479"
   y1="10.0826"
   x1="176.72479"
   gradientUnits="userSpaceOnUse"
   id="SVGID_85_">
			<stop
   id="stop4363"
   style="stop-color:#00E6CF"
   offset="5.405406e-03" />

			<stop
   id="stop4365"
   style="stop-color:#F07400"
   offset="0.8162" />

		</linearGradient>

		<path
   id="path4368"
   d="m 185.7,74.9 v -1.8 c -5.1,-1 -10.3,-2 -15.4,-3 l -2.5,1.4 c 3.9,0.8 7.8,1.7 11.7,2.4 2.1,0.3 4.1,0.7 6.2,1 z"
   class="st84"
   inkscape:connector-curvature="0"
   style="fill:url(#SVGID_85_)" />

		<linearGradient
   y2="208.3857"
   x2="181.98309"
   y1="10.0826"
   x1="181.98309"
   gradientUnits="userSpaceOnUse"
   id="SVGID_86_">
			<stop
   id="stop4370"
   style="stop-color:#00E6CF"
   offset="5.405406e-03" />

			<stop
   id="stop4372"
   style="stop-color:#F07400"
   offset="0.8162" />

		</linearGradient>

		<path
   id="path4375"
   d="m 185.5,78.8 c 0.1,0 0.1,0 0.2,0 v -1.6 c -2,-0.3 -4,-0.4 -6,-0.8 -0.5,-0.1 -0.9,-0.2 -1.4,0 0.9,0.9 2,1.4 3.2,1.7 1.3,0.4 2.6,0.6 4,0.7 z"
   class="st85"
   inkscape:connector-curvature="0"
   style="fill:url(#SVGID_86_)" />

		<linearGradient
   y2="208.3857"
   x2="106.7022"
   y1="10.0826"
   x1="106.7022"
   gradientUnits="userSpaceOnUse"
   id="SVGID_87_">
			<stop
   id="stop4377"
   style="stop-color:#00E6CF"
   offset="5.405406e-03" />

			<stop
   id="stop4379"
   style="stop-color:#F07400"
   offset="0.8162" />

		</linearGradient>

		<path
   id="path4382"
   d="m 112.2,154.4 c -0.9,0.5 -1.9,1.4 -2.3,1.7 -0.7,0.4 -1.4,1.1 -2,1 -0.8,0 -8.1,-0.7 -8.1,0.2 0.1,2.1 4.4,1.9 5.8,2.2 2.1,0.6 3.5,-0.4 4.9,-1.4 1,-0.6 2.6,-1.9 3,-3 0.1,-0.3 0.1,-0.6 -0.1,-0.8 -0.3,-0.3 -0.7,-0.2 -1.2,0.1 z"
   class="st86"
   inkscape:connector-curvature="0"
   style="fill:url(#SVGID_87_)" />

		<linearGradient
   y2="208.3857"
   x2="129.84151"
   y1="10.0826"
   x1="129.84151"
   gradientUnits="userSpaceOnUse"
   id="SVGID_88_">
			<stop
   id="stop4384"
   style="stop-color:#00E6CF"
   offset="5.405406e-03" />

			<stop
   id="stop4386"
   style="stop-color:#F07400"
   offset="0.8162" />

		</linearGradient>

		<path
   id="path4389"
   d="m 120.5,106.5 c 0.4,0.1 0.7,0.2 1.1,0.2 5.6,-0.4 11.2,-0.8 16.9,-1.3 0.2,0 0.5,-0.2 0.7,-0.3 0,-0.1 0.1,-0.3 0.1,-0.4 -0.2,-0.3 -0.5,-0.7 -0.8,-0.7 -4,0.1 -8,0.1 -12,0.4 -1.7,0.1 -3.4,0.5 -5.1,1 -0.4,0 -0.6,0.7 -0.9,1.1 z"
   class="st87"
   inkscape:connector-curvature="0"
   style="fill:url(#SVGID_88_)" />

		<linearGradient
   y2="208.3882"
   x2="179.3425"
   y1="10.0851"
   x1="179.3425"
   gradientUnits="userSpaceOnUse"
   id="SVGID_89_">
			<stop
   id="stop4391"
   style="stop-color:#00E6CF"
   offset="5.405406e-03" />

			<stop
   id="stop4393"
   style="stop-color:#F07400"
   offset="0.8162" />

		</linearGradient>

		<path
   id="path4396"
   d="m 183.7,70.9 c 0.6,0.1 1.3,0.1 2,0 v -1.1 c -3.1,-1.7 -6.6,-2.4 -10,-2.9 l -2.6,1.5 c 3.5,0.9 7,1.8 10.6,2.5 z"
   class="st88"
   inkscape:connector-curvature="0"
   style="fill:url(#SVGID_89_)" />

		<linearGradient
   y2="208.3857"
   x2="105.3435"
   y1="10.0826"
   x1="105.3435"
   gradientUnits="userSpaceOnUse"
   id="SVGID_90_">
			<stop
   id="stop4398"
   style="stop-color:#00E6CF"
   offset="5.405406e-03" />

			<stop
   id="stop4400"
   style="stop-color:#F07400"
   offset="0.8162" />

		</linearGradient>

		<path
   id="path4403"
   d="m 110.5,203.2 c -2.5,-3.4 -4.9,-7.6 -8,-10.4 -1,-0.9 -2,-1.7 -2.1,-0.1 -0.1,1.3 1.8,2.9 2.5,3.7 0.6,0.7 1.6,1.5 2.1,2.3 0.1,0.2 0.1,0.6 -0.1,0.7 -0.9,0.7 -1.8,-1.2 -2.2,-1.7 -0.8,-1 -1.7,-1.8 -2.4,-2.9 V 209 Z m -8,-1.4 c 0,0.1 0,0.1 0,0.2 -0.1,-0.1 -0.1,-0.1 -0.2,-0.2 0,-0.1 -0.1,-0.1 -0.1,-0.2 0.2,0.1 0.2,0.2 0.3,0.2 z"
   class="st89"
   inkscape:connector-curvature="0"
   style="fill:url(#SVGID_90_)" />

		<linearGradient
   y2="208.3857"
   x2="108.8858"
   y1="10.0826"
   x1="108.8858"
   gradientUnits="userSpaceOnUse"
   id="SVGID_91_">
			<stop
   id="stop4405"
   style="stop-color:#00E6CF"
   offset="5.405406e-03" />

			<stop
   id="stop4407"
   style="stop-color:#F07400"
   offset="0.8162" />

		</linearGradient>

		<path
   id="path4410"
   d="m 100.4,173.2 c 0.7,1.6 1.9,3.2 2.5,4.8 0.2,0.5 0.7,0.8 1.1,1.2 0.9,1.1 2.1,2.2 2.7,3.5 2.4,5.3 6.1,9.9 9,14.8 0.4,0.7 0.9,1.3 1.4,1.9 l 1.6,-1 c -1.7,-2.3 -3.2,-4.8 -4.7,-7.3 -0.7,-1.2 -1.5,-2.5 -2.3,-3.7 -0.7,-1.1 -1.6,-2 -1.5,-3.3 0,-1.2 -1.3,-2.4 -1.9,-3.3 -0.9,-1.3 -1.8,-2.6 -2.7,-3.8 -0.8,-1.2 -1.7,-2.3 -2.5,-3.5 -0.4,-0.6 -0.9,-1.3 -1.3,-1.9 -0.4,-0.6 -0.7,-2.1 -1.4,-2.4 -1.1,-0.5 -1.6,0.4 -1.2,1.4 0.3,1 0.8,1.8 1.2,2.6 z"
   class="st90"
   inkscape:connector-curvature="0"
   style="fill:url(#SVGID_91_)" />

		<linearGradient
   y2="208.3857"
   x2="178.1286"
   y1="10.0826"
   x1="178.1286"
   gradientUnits="userSpaceOnUse"
   id="SVGID_92_">
			<stop
   id="stop4412"
   style="stop-color:#00E6CF"
   offset="5.405406e-03" />

			<stop
   id="stop4414"
   style="stop-color:#F07400"
   offset="0.8162" />

		</linearGradient>

		<path
   id="path4417"
   d="m 177.2,80 c 1,0.2 2,0.4 3,0.3 0,0 0.1,0 0.1,-0.1 0.1,-0.1 0,-0.2 -0.1,-0.2 -1,-1 -2.5,-1 -3.9,-0.9 -0.2,0 -0.3,0 -0.5,0.1 -0.1,0.1 -0.2,0.3 -0.1,0.4 0.1,0.1 0.2,0.1 0.3,0.1 0.5,0.2 0.9,0.3 1.2,0.3 z"
   class="st91"
   inkscape:connector-curvature="0"
   style="fill:url(#SVGID_92_)" />

		<linearGradient
   y2="208.3857"
   x2="110.4192"
   y1="10.0826"
   x1="110.4192"
   gradientUnits="userSpaceOnUse"
   id="SVGID_93_">
			<stop
   id="stop4419"
   style="stop-color:#00E6CF"
   offset="5.405406e-03" />

			<stop
   id="stop4421"
   style="stop-color:#F07400"
   offset="0.8162" />

		</linearGradient>

		<path
   id="path4424"
   d="m 110.3,182.3 c 0.2,0.3 0.3,0.6 0.3,0.8 0.3,1.7 1.6,2.8 2.5,4.1 2.4,3.4 4.5,7 7.1,10.3 l 1.4,-0.8 c -1.6,-1.7 -3.1,-3.6 -4.2,-5.6 -3.2,-5.5 -6.3,-11.2 -8.7,-17 -0.8,-2 -2,-3.9 -3.4,-5.6 -1.1,-1.3 -2.5,-3 -3.8,-4 -1.2,-0.9 -3.3,-0.7 -1.8,1.1 1.1,1.3 2.2,2.6 3.2,4 1.2,1.5 2.3,3.2 3.3,4.9 0.9,1.4 1.6,2.9 2.4,4.4 0.4,0.7 0.7,1.5 1.1,2.2 0.1,0.5 0.4,0.8 0.6,1.2 z"
   class="st92"
   inkscape:connector-curvature="0"
   style="fill:url(#SVGID_93_)" />

	</g>

	
		<linearGradient
   gradientTransform="matrix(1,0,0,-1,0,3650.3203)"
   y2="3755.0754"
   x2="94.677902"
   y1="3556.7725"
   x1="94.677902"
   gradientUnits="userSpaceOnUse"
   id="SVGID_94_">
		<stop
   id="stop4428"
   style="stop-color:#00E6CF"
   offset="5.405406e-03" />

		<stop
   id="stop4430"
   style="stop-color:#F07400"
   offset="0.8162" />

	</linearGradient>

	<path
   id="path4433"
   d="M 24.7,60.9 C 29.4,55.3 34.2,49.7 39.2,44.3 L 38,45 c -2.7,2.4 -5.5,4.7 -8.3,7 2,-2.4 4,-4.8 6,-7.2 -4.7,3.7 -9.4,7.3 -14.2,10.9 l 2,-2.6 c -1.9,1.3 -3.8,2.6 -5.6,3.9 l -8.6,-4.7 16,-9.4 -4.8,3.1 c 0,0 0.6,-0.5 1.4,-1.2 L 57.3,24.4 c -3.8,3.7 -7.6,7.4 -11.3,11.2 2.5,-1.9 5,-3.8 7.5,-5.7 l -5.6,5.7 -1.3,2 C 53.9,31.4 61,24.9 68,18.3 l 4.1,-2.4 c -4.9,5.8 -9.8,11.7 -14.5,17.8 1.5,-1.4 3,-2.9 4.4,-4.3 -1.7,2.2 -3.4,4.4 -5,6.6 -0.6,1.1 -1.1,2.2 -1.6,3.4 L 55.9,39 c -0.8,1.5 -1.5,3 -2.2,4.6 l 2.1,-1.9 c 0.6,-0.3 1.1,-0.5 1.7,-0.8 l 4.3,-5.3 c 3.9,-4.5 7.7,-9.1 11.3,-13.8 L 80.3,11 h 0.1 c -2.7,4.1 -5.5,8.2 -8.1,12.3 -3.8,6 -7.5,12.1 -11,18.2 -0.6,2.1 -1.2,4.2 -1.8,6.3 l -2.4,4 2.3,1.3 3.9,-6.9 2.2,-2.8 c -0.8,1.9 -1.6,3.9 -2.3,5.9 L 65,47.4 C 64.6,48.7 64.2,50 63.8,51.3 70.4,38.4 77,25.5 83.4,12.4 77.9,24.1 72.7,36 67.8,48 c 1.6,-2.8 3.1,-5.5 4.6,-8.3 l 0.2,0.9 C 74.9,36 77,31.3 79.2,26.5 l -1.3,3.3 C 81.1,22.2 84.3,14.6 87.3,7 L 87.5,6.9 C 83.7,17.1 80.1,27.5 76.7,38 75.9,41.2 75.1,44.4 74.4,47.7 76,44.1 77.6,40.6 79,37 c -1.1,4.9 -2,9.9 -2.7,14.9 l 1,-2.1 -0.5,3 c 0.1,0.5 0.3,1.1 0.4,1.6 L 77,56.2 h 0.5 l 2.1,-8.8 c 0.8,-2.2 1.6,-4.5 2.3,-6.7 -0.6,3.4 -1.1,6.8 -1.5,10.2 0.6,-1.5 1.2,-3.1 1.8,-4.7 l 1,-5.2 -0.8,6 c -0.2,2.6 -0.4,5.2 -0.6,7.9 0.3,0.8 0.6,1.7 1,2.5 v 0.2 c 0.2,0.1 0.4,0.3 0.5,0.5 0.1,0.2 0.6,-2.6 1.2,-5.4 0.5,-2.8 1,-5.7 1,-5.7 l -0.3,4.3 c 1.4,-7.5 2.7,-15 3.8,-22.5 0.1,0.5 0.3,1 0.4,1.5 1,-8.7 1.9,-17.4 2.7,-26.1 h 0.1 c -1,14.5 -1.9,29 -2.6,43.5 0.3,-1.4 0.6,-2.8 0.9,-4.1 0,2.3 0.1,4.5 0.1,6.8 0.4,-4.2 0.8,-8.4 1.1,-12.6 0.1,4.8 0.4,9.6 0.7,14.5 l 0.4,2 c 0.9,-11.6 1.3,-23.4 1.3,-35 0.7,10.2 1.8,20.4 3.4,30.5 0.1,-1.6 0.1,-3.1 0.2,-4.6 l 0.9,6.1 c 0.4,0.9 0.8,1.9 1.3,2.8 l 0.9,4.5 0.4,-0.2 c 0.1,-1.2 0.2,-2.3 0.3,-3.5 l 0.6,-1.3 -0.5,-5.1 -0.1,-2.3 -0.1,-0.8 c -0.3,-3.2 -0.6,-6.3 -0.9,-9.5 l 0.4,2 -0.3,-2.8 -1.9,-10.7 c 0.8,4 1.7,8 2.6,12 l 0.6,2.2 c -0.4,-3.4 -0.9,-6.8 -1.5,-10.2 l 0.6,0.7 -0.1,-0.5 0.1,0.6 0.4,0.5 C 99.7,20.9 97.8,12.2 95.6,3.6 l 0.1,0.1 c 3.6,13.6 7.5,27.1 11.5,40.6 -2.1,-8.8 -4.3,-17.5 -6.7,-26.2 0.3,0.6 0.7,1.2 1,1.8 C 100,14.3 98.3,9 96.6,3.8 L 97,4 c 0.1,0.4 0.3,0.9 0.4,1.3 C 97.3,4.8 97.1,4.4 97,4 v 0 c 0.2,0.4 0.3,0.9 0.5,1.3 3.9,11 7.8,22 11.8,32.9 l 0.7,1.3 -1,-4 c 1.3,3.2 2.7,6.3 4.1,9.5 -1.8,-6.4 -3.7,-12.6 -5.9,-18.8 -1.6,-4.1 -3.2,-8.1 -4.9,-12.1 l 2.3,4.9 -0.8,-2.2 c 1.1,2.2 2.2,4.4 3.4,6.6 -2.6,-6.1 -5.3,-12.2 -8.1,-18.3 h 0.1 c 5.5,11.1 11.5,22 17.9,32.8 l -0.9,-1.7 1.8,2.8 -1.9,-4.2 c 1.4,2.4 2.9,4.7 4.3,7 0.9,1 1.9,1.9 2.8,2.9 l 2.2,3.2 1.2,0.4 -1.3,-3.4 -0.2,-1.9 -3.4,-5.9 C 118.9,31.8 116,26.7 112.9,21.6 l -8.2,-12 c 3.1,4.5 6.3,9 9.5,13.4 l 4.1,5.5 -0.5,-0.9 -6.3,-8.9 c 2.5,3.3 5,6.5 7.6,9.7 1.5,1.8 3.1,3.6 4.7,5.4 l -0.9,-1.4 c 2.4,2.7 4.9,5.4 7.4,8.1 0.7,0.3 1.5,0.7 2.3,1 l -4.1,-5.1 c -1.3,-2 -2.6,-4 -3.9,-5.9 2.1,2.2 4.2,4.4 6.3,6.5 l -0.3,-0.5 c -2.5,-3.5 -5.1,-6.9 -7.7,-10.2 2.6,2.5 5.3,5 8.1,7.4 -6.4,-7.2 -12.8,-14.4 -19.3,-21.5 l 0.5,0.3 c 6.8,7 13.7,13.9 20.8,20.7 l -2.6,-2.7 c -2.1,-2.4 -4.2,-4.7 -6.3,-7.1 l 6.2,5.8 -0.5,-0.6 h 0.2 c -3.4,-3.8 -6.9,-7.4 -10.5,-11.1 l 0.8,0.4 -0.4,-0.4 0.4,0.4 0.2,0.1 c -0.6,-0.6 -1.2,-1.1 -1.8,-1.7 l 5.6,3.3 c 1.3,1.1 2.6,2.2 3.9,3.2 -1,-0.9 -2,-1.8 -3,-2.7 l 55,31.8 -5,2.9 c -2.8,-1.8 -5.6,-3.6 -8.4,-5.4 l 1.7,1.5 c -1.7,-0.9 -3.3,-1.9 -4.9,-2.8 3.2,2.6 6.4,5.3 9.6,7.9 l -3.8,2.2 c -1.6,-1.2 -3.1,-2.4 -4.7,-3.6 1.3,1.3 2.7,2.7 4,4 l -4.5,2.6 c -3.4,-2.7 -6.7,-5.4 -10,-8.2 2.6,2.9 5.1,5.8 7.7,8.7 -2.5,-2 -4.9,-4.1 -7.3,-6.1 L 152,52.9 c 3,3.4 5.9,6.8 8.9,10.3 l -1.7,1 c -4,-4.1 -8,-8.2 -11.9,-12.3 1.9,2.8 3.7,5.7 5.5,8.6 -3,-2.7 -5.9,-5.4 -8.8,-8.2 2.1,3.1 4.2,6.2 6.3,9.3 -1.8,-1.6 -3.6,-3.2 -5.4,-4.8 l -4.1,-5.1 c 0.1,1.1 0.2,2.1 0.2,3.2 2.7,4.6 5.2,9.4 7.7,14.2 0.2,0.3 0.3,0.6 0.5,0.9 l -4,2.3 c -1.5,-1.8 -3.1,-3.5 -4.6,-5.3 l -4.1,-5.5 -1.8,-0.8 c -1.5,-1.6 -3,-3.2 -4.5,-4.8 v 0 c 1.1,2.3 2.2,4.7 3.3,7 0.2,1.4 0.5,2.7 0.7,4.1 1.2,2.5 2.3,5 3.4,7.6 -1.3,-1.7 -2.5,-3.3 -3.7,-5 1.1,2.5 2.1,5 3.1,7.5 l -7.8,4.5 c -2.2,-3.6 -4.3,-7.2 -6.3,-10.8 1.1,3.8 2.2,7.6 3.3,11.4 -1,-1.6 -2,-3.2 -3,-4.9 0.7,2.2 1.4,4.4 2.2,6.5 l -5.2,3 c -1.3,-3.4 -2.5,-6.9 -3.7,-10.3 0.9,3.7 1.7,7.3 2.6,11 l -5.7,3.3 c -0.9,-2.5 -1.7,-5 -2.6,-7.5 l 0.2,2.3 c 0.2,2.1 0.5,4.1 0.7,6.2 l -0.4,0.3 -0.9,-4.9 -0.7,-1.9 0.3,3.5 c -1,-3 -1.9,-6.1 -2.8,-9.1 l -0.5,-3.1 -0.7,-2.2 -1.2,-5 -1.2,-1.1 c -0.5,-1.1 -1,-2.3 -1.4,-3.5 l -0.5,-0.2 0.1,4.8 c -0.3,1 -0.7,2 -1,3 v 6.2 c -0.4,-1.5 -0.8,-3 -1.2,-4.5 -0.3,8.5 -0.8,17.1 -1.7,25.6 l -1.3,0.7 c -1.7,-11 -3.1,-22 -3.9,-33 l -0.3,1.2 c -0.6,4.8 -1.2,9.6 -1.9,14.4 -0.2,-3.6 -0.3,-7.1 -0.4,-10.7 -0.4,2.8 -0.8,5.5 -1.2,8.2 -0.3,-1.4 -0.6,-2.8 -0.8,-4.3 -0.6,6.7 -1.2,13.4 -1.9,20.1 l -2.5,-1.4 c 0,-0.5 0,-1.1 0,-1.6 -0.4,0.3 -0.8,0.6 -1.2,0.9 L 82,93.9 c 0.1,-7.4 0.4,-14.8 0.8,-22.2 l -0.9,4.2 c 0,0 0.2,-2.9 0.4,-5.7 0.2,-2.9 0.4,-5.7 0.3,-5.5 -0.2,0.3 -0.9,0.4 -0.9,0.4 l -1.1,-1.2 c -0.9,2.9 -1.9,5.9 -2.9,8.8 l -1.6,4.3 1,-5.2 c 0,-1.3 -0.1,-2.7 -0.1,-4 -1.3,4 -2.6,8.1 -4,12.1 0.1,-2.4 0.3,-4.8 0.5,-7.2 l 1.6,-6.6 C 74.5,65.8 73.8,65.4 73.2,65 l -0.3,0.8 v -1 l -0.4,-0.3 c -1.9,4.3 -4,8.5 -6.1,12.7 0.4,-2.9 0.9,-5.7 1.4,-8.6 -1.9,3.8 -4,7.6 -6.1,11.3 -0.3,0.6 -0.5,1.2 -0.8,1.7 l -3.6,-2.1 c 0.1,-0.2 0.1,-0.4 0.2,-0.5 0.9,-3.3 1.9,-6.7 2.9,-10 l -1.1,0.3 c 0.8,-2.5 1.5,-5 2.3,-7.5 C 59,67 56.2,72.2 53.5,77.3 l -1.9,-1.1 c 2.9,-6.4 5.9,-12.8 8.9,-19.2 -0.9,1.4 -1.9,2.8 -2.9,4.2 l 1.8,-4.7 0.1,-0.4 -0.3,-0.1 c -1.1,1.5 -2.2,3.1 -3.4,4.6 l 1,-3.4 1,-1.9 -2.4,-1.4 -2.4,4 c -1.7,1.4 -3.5,2.7 -5.4,4 -2.2,2.8 -4.4,5.6 -6.6,8.4 l -3.1,-1.8 c 0.9,-1.7 1.7,-3.3 2.7,-5 l 3.7,-5.8 c 0,-0.7 0.1,-1.3 0.1,-2 0.6,-1.3 1.2,-2.5 1.8,-3.7 -1,0.8 -2.1,1.5 -3.1,2.3 L 42,55.5 c -1.2,0.7 -2.4,1.4 -3.6,2.1 -1.9,2 -3.9,3.9 -5.8,5.9 1.1,-1.8 2.2,-3.5 3.3,-5.3 -2,1.9 -4,3.8 -6,5.7 z"
   class="st93"
   inkscape:connector-curvature="0"
   style="fill:url(#SVGID_94_)" />

	<g
   id="g4442">
		<linearGradient
   y2="155.74471"
   x2="99.559097"
   y1="155.74471"
   x1="99.559097"
   gradientUnits="userSpaceOnUse"
   id="SVGID_95_">
			<stop
   id="stop4435"
   style="stop-color:#00E6CF"
   offset="5.405406e-03" />

			<stop
   id="stop4437"
   style="stop-color:#F07400"
   offset="0.8162" />

		</linearGradient>

		<path
   id="path4440"
   d="m 99.5,155.7 c 0.1,0 0.1,0 0,0"
   class="st94"
   inkscape:connector-curvature="0"
   style="fill:url(#SVGID_95_)" />

	</g>

</g>
    </g>
  </g>
  <style
     id="style3767"
     type="text/css">
	.st0{fill:url(#SVGID_1_);}
	.st1{fill:url(#SVGID_2_);}
	.st2{fill:url(#SVGID_3_);}
	.st3{fill:url(#SVGID_4_);}
	.st4{fill:url(#SVGID_5_);}
	.st5{fill:url(#SVGID_6_);}
	.st6{fill:url(#SVGID_7_);}
	.st7{fill:url(#SVGID_8_);}
	.st8{fill:url(#SVGID_9_);}
	.st9{fill:url(#SVGID_10_);}
	.st10{fill:url(#SVGID_11_);}
	.st11{fill:url(#SVGID_12_);}
	.st12{fill:url(#SVGID_13_);}
	.st13{fill:url(#SVGID_14_);}
	.st14{fill:url(#SVGID_15_);}
	.st15{fill:url(#SVGID_16_);}
	.st16{fill:url(#SVGID_17_);}
	.st17{fill:url(#SVGID_18_);}
	.st18{fill:url(#SVGID_19_);}
	.st19{fill:url(#SVGID_20_);}
	.st20{fill:url(#SVGID_21_);}
	.st21{fill:url(#SVGID_22_);}
	.st22{fill:url(#SVGID_23_);}
	.st23{fill:url(#SVGID_24_);}
	.st24{fill:url(#SVGID_25_);}
	.st25{fill:url(#SVGID_26_);}
	.st26{fill:url(#SVGID_27_);}
	.st27{fill:url(#SVGID_28_);}
	.st28{fill:url(#SVGID_29_);}
	.st29{fill:url(#SVGID_30_);}
	.st30{fill:url(#SVGID_31_);}
	.st31{fill:url(#SVGID_32_);}
	.st32{fill:url(#SVGID_33_);}
	.st33{fill:url(#SVGID_34_);}
	.st34{fill:url(#SVGID_35_);}
	.st35{fill:url(#SVGID_36_);}
	.st36{fill:url(#SVGID_37_);}
	.st37{fill:url(#SVGID_38_);}
	.st38{fill:url(#SVGID_39_);}
	.st39{fill:url(#SVGID_40_);}
	.st40{fill:url(#SVGID_41_);}
	.st41{fill:url(#SVGID_42_);}
	.st42{fill:url(#SVGID_43_);}
	.st43{fill:url(#SVGID_44_);}
	.st44{fill:url(#SVGID_45_);}
	.st45{fill:url(#SVGID_46_);}
	.st46{fill:url(#SVGID_47_);}
	.st47{fill:url(#SVGID_48_);}
	.st48{fill:url(#SVGID_49_);}
	.st49{fill:url(#SVGID_50_);}
	.st50{fill:url(#SVGID_51_);}
	.st51{fill:url(#SVGID_52_);}
	.st52{fill:url(#SVGID_53_);}
	.st53{fill:url(#SVGID_54_);}
	.st54{fill:url(#SVGID_55_);}
	.st55{fill:url(#SVGID_56_);}
	.st56{fill:url(#SVGID_57_);}
	.st57{fill:url(#SVGID_58_);}
	.st58{fill:url(#SVGID_59_);}
	.st59{fill:url(#SVGID_60_);}
	.st60{fill:url(#SVGID_61_);}
	.st61{fill:url(#SVGID_62_);}
	.st62{fill:url(#SVGID_63_);}
	.st63{fill:url(#SVGID_64_);}
	.st64{fill:url(#SVGID_65_);}
	.st65{fill:url(#SVGID_66_);}
	.st66{fill:url(#SVGID_67_);}
	.st67{fill:url(#SVGID_68_);}
	.st68{fill:url(#SVGID_69_);}
	.st69{fill:url(#SVGID_70_);}
	.st70{fill:url(#SVGID_71_);}
	.st71{fill:url(#SVGID_72_);}
	.st72{fill:url(#SVGID_73_);}
	.st73{fill:url(#SVGID_74_);}
	.st74{fill:url(#SVGID_75_);}
	.st75{fill:url(#SVGID_76_);}
	.st76{fill:url(#SVGID_77_);}
	.st77{fill:url(#SVGID_78_);}
	.st78{fill:url(#SVGID_79_);}
	.st79{fill:url(#SVGID_80_);}
	.st80{fill:url(#SVGID_81_);}
	.st81{fill:url(#SVGID_82_);}
	.st82{fill:url(#SVGID_83_);}
	.st83{fill:url(#SVGID_84_);}
	.st84{fill:url(#SVGID_85_);}
	.st85{fill:url(#SVGID_86_);}
	.st86{fill:url(#SVGID_87_);}
	.st87{fill:url(#SVGID_88_);}
	.st88{fill:url(#SVGID_89_);}
	.st89{fill:url(#SVGID_90_);}
	.st90{fill:url(#SVGID_91_);}
	.st91{fill:url(#SVGID_92_);}
	.st92{fill:url(#SVGID_93_);}
	.st93{fill:url(#SVGID_94_);}
	.st94{fill:url(#SVGID_95_);}
</style>
</svg>
